<svg aria-hidden="true" style="width: 0; height: 0; position: absolute; overflow: hidden" version="1.1" xmlns="http://www.w3.org/2000/svg" xmlns:xlink="http://www.w3.org/1999/xlink">
<defs>

<symbol id="icon-Black" viewBox="0 0 408 32">
<title>Black</title>
<path fill="#000" style="fill: var(--color1, #000)" d="M41.882 2.353c0-1.3 1.053-2.353 2.353-2.353h7.059c1.3 0 2.353 1.053 2.353 2.353v7.059c0 1.299-1.053 2.353-2.353 2.353h-7.059c-1.3 0-2.353-1.053-2.353-2.353v-7.059z"></path>
<!-- pinterest -->
<path fill="#fff" style="fill: var(--color2, #fff)" d="M49.658 2.825c1.131 0 2.107 0.927 2.107 2.072 0 2.232-2.2 4.045-4 4.045s-4-1.812-4-4.045c0-1.144 0.976-2.072 2.107-2.072 1.376 0 1.859 1.058 1.893 1.135 0.172-0.351 0.441-0.645 0.777-0.846s0.722-0.301 1.113-0.288h0.003zM50.017 4.983v-0.062h-0.793v0.062c0 0.782-0.657 1.423-1.459 1.423-0.806 0-1.456-0.64-1.456-1.423v-0.062h-0.8v0.062c0 0.588 0.232 1.138 0.66 1.552 0.426 0.415 0.998 0.646 1.593 0.643 0.595 0.003 1.167-0.228 1.592-0.643 0.209-0.201 0.375-0.442 0.488-0.709s0.172-0.553 0.172-0.843l0.003 0z"></path>
<!-- tiktok -->
<path fill="#000" style="fill: var(--color1, #000)" d="M62.768 6.208c0 2.542 1.528 4.726 3.716 5.686-0.017-0.433-0.003-0.954 0.108-1.425 0.12-0.504 0.799-3.383 0.799-3.383s-0.198-0.396-0.198-0.982c0-0.92 0.533-1.607 1.197-1.607 0.565 0 0.838 0.424 0.838 0.932 0 0.568-0.362 1.417-0.548 2.203-0.156 0.659 0.33 1.196 0.98 1.196 1.176 0 1.968-1.511 1.968-3.3 0-1.361-0.916-2.379-2.583-2.379-1.883 0-3.056 1.404-3.056 2.973 0 0.541 0.16 0.922 0.409 1.218 0.115 0.136 0.131 0.19 0.089 0.346-0.030 0.114-0.098 0.389-0.127 0.498-0.041 0.157-0.169 0.213-0.311 0.155-0.867-0.354-1.271-1.304-1.271-2.372 0-1.763 1.487-3.878 4.436-3.878 2.37 0 3.93 1.715 3.93 3.556 0 2.435-1.354 4.254-3.35 4.254-0.67 0-1.3-0.362-1.516-0.774 0 0-0.36 1.43-0.437 1.706-0.132 0.479-0.389 0.957-0.625 1.33 0.571 0.169 1.164 0.255 1.76 0.255 3.428 0 6.207-2.779 6.207-6.208s-2.78-6.208-6.207-6.208c-3.428 0-6.208 2.779-6.208 6.208z"></path>
<!-- 6 -->
<path fill="#000" style="fill: var(--color1, #000)" d="M92.432 4.551c0.766 0.55 1.705 0.873 2.72 0.873v-1.958c-0.192 0-0.383-0.020-0.571-0.060v1.542c-1.014 0-1.953-0.324-2.72-0.873v3.996c0 1.999-1.615 3.62-3.607 3.62-0.743 0-1.434-0.226-2.008-0.612 0.655 0.672 1.568 1.089 2.579 1.089 1.992 0 3.607-1.621 3.607-3.62v-3.996zM93.137 2.575c-0.392-0.429-0.649-0.984-0.704-1.598v-0.252h-0.541c0.136 0.78 0.601 1.446 1.246 1.85zM87.506 9.544c-0.219-0.288-0.337-0.64-0.336-1.002 0-0.914 0.739-1.656 1.65-1.656 0.17-0 0.339 0.026 0.5 0.078v-2.002c-0.189-0.026-0.38-0.037-0.571-0.033v1.558c-0.162-0.052-0.331-0.078-0.501-0.078-0.911 0-1.65 0.741-1.65 1.656 0 0.647 0.369 1.206 0.908 1.479z"></path>
<!-- 7 -->
<path fill="#000" style="fill: var(--color1, #000)" d="M91.861 4.074c0.767 0.55 1.705 0.873 2.719 0.873v-1.542c-0.566-0.121-1.067-0.418-1.444-0.831-0.645-0.404-1.109-1.070-1.246-1.85h-1.422v7.822c-0.003 0.912-0.741 1.65-1.65 1.65-0.536 0-1.012-0.256-1.313-0.653-0.539-0.273-0.908-0.833-0.908-1.479 0-0.914 0.739-1.656 1.65-1.656 0.175 0 0.343 0.027 0.501 0.078v-1.558c-1.957 0.041-3.531 1.645-3.531 3.619 0 0.985 0.392 1.878 1.028 2.531 0.574 0.387 1.265 0.612 2.008 0.612 1.992 0 3.607-1.621 3.607-3.62v-3.997z"></path>
<!-- 8 -->
<path fill="#000" style="fill: var(--color1, #000)" d="M94.581 3.406v-0.417c-0.51 0.001-1.011-0.143-1.444-0.414 0.383 0.421 0.888 0.712 1.444 0.831zM91.891 0.725c-0.013-0.075-0.023-0.15-0.030-0.225v-0.252h-1.963v7.822c-0.003 0.912-0.74 1.65-1.65 1.65-0.267 0-0.519-0.064-0.742-0.177 0.301 0.397 0.777 0.653 1.313 0.653 0.909 0 1.647-0.738 1.65-1.65v-7.822h1.422zM88.749 4.928v-0.444c-0.164-0.022-0.329-0.034-0.495-0.034-1.992-0-3.607 1.621-3.607 3.62 0 1.253 0.635 2.358 1.599 3.008-0.636-0.653-1.028-1.546-1.028-2.531 0-1.974 1.574-3.578 3.531-3.619z"></path>
<!-- 9 -->
<path fill="#000" style="fill: var(--color1, #000)" d="M116.305 5.882c0 3.249-2.634 5.882-5.882 5.882s-5.882-2.634-5.882-5.882c0-3.249 2.634-5.882 5.882-5.882s5.882 2.634 5.882 5.882z"></path>
<!-- 10 -->
<path fill="#fff" style="fill: var(--color2, #fff)" d="M113.191 3.312c-0.507-0.228-1.055-0.393-1.627-0.489-0.005-0-0.010 0.001-0.015 0.003s-0.009 0.005-0.012 0.008c-0.068 0.121-0.148 0.279-0.202 0.401-0.606-0.088-1.222-0.088-1.828 0-0.053-0.125-0.133-0.279-0.206-0.401-0.004-0.007-0.015-0.011-0.027-0.011-0.572 0.096-1.116 0.261-1.627 0.489-0.004 0-0.008 0.004-0.011 0.007-1.036 1.496-1.322 2.951-1.181 4.392 0 0.007 0.004 0.015 0.011 0.018 0.686 0.485 1.345 0.779 1.996 0.974 0.012 0.004 0.023 0 0.027-0.007 0.152-0.202 0.289-0.415 0.408-0.64 0.008-0.015 0-0.029-0.015-0.033-0.217-0.081-0.423-0.176-0.625-0.287-0.015-0.007-0.015-0.029-0.004-0.040 0.042-0.029 0.084-0.063 0.126-0.092 0.008-0.007 0.019-0.007 0.027-0.004 1.311 0.577 2.724 0.577 4.019 0 0.008-0.004 0.019-0.004 0.027 0.004 0.042 0.033 0.084 0.062 0.126 0.096 0.015 0.011 0.015 0.033-0.004 0.040-0.198 0.114-0.408 0.206-0.625 0.287-0.015 0.004-0.019 0.022-0.015 0.033 0.122 0.224 0.259 0.437 0.408 0.64 0.011 0.004 0.023 0.007 0.034 0.004 0.655-0.195 1.314-0.489 2-0.974 0.008-0.004 0.011-0.011 0.011-0.018 0.168-1.665-0.278-3.109-1.181-4.392-0.004-0.004-0.008-0.007-0.015-0.007zM109.096 6.834c-0.392 0-0.72-0.349-0.72-0.779s0.32-0.779 0.72-0.779c0.404 0 0.724 0.353 0.72 0.779 0 0.43-0.32 0.779-0.72 0.779zM111.751 6.834c-0.392 0-0.72-0.349-0.72-0.779s0.32-0.779 0.72-0.779c0.404 0 0.724 0.353 0.72 0.779 0 0.43-0.316 0.779-0.72 0.779z"></path>
<!-- 11 -->
<path fill="#000" style="fill: var(--color1, #000)" d="M137.191 5.882c0 3.249-2.634 5.882-5.882 5.882s-5.882-2.634-5.882-5.882c0-3.249 2.634-5.882 5.882-5.882s5.882 2.634 5.882 5.882z"></path>
<!-- 12 -->
<path fill="#000" style="fill: var(--color1, #000)" d="M137.191 5.882c0 3.249-2.634 5.882-5.882 5.882s-5.882-2.634-5.882-5.882c0-3.249 2.634-5.882 5.882-5.882s5.882 2.634 5.882 5.882z"></path>
<!-- 13 -->
<path fill="#fff" style="fill: var(--color2, #fff)" d="M130.367 7.647v4c0 0.065 0.053 0.118 0.118 0.118h1.647c0.065 0 0.118-0.053 0.118-0.118v-4c0-0.065 0.053-0.118 0.118-0.118h1.176c0.065 0 0.118-0.053 0.118-0.118v-1.412c0-0.065-0.053-0.118-0.118-0.118h-1.176c-0.065 0-0.118-0.053-0.118-0.118v-1.059c0-0.471 0.588-0.706 0.824-0.706h0.706c0.065 0 0.118-0.053 0.118-0.118v-1.412c0-0.065-0.053-0.118-0.118-0.118h-1.529c-1.129 0-1.882 1.176-1.882 1.882v1.529c0 0.065-0.053 0.118-0.118 0.118h-1.176c-0.065 0-0.118 0.053-0.118 0.118v1.412c0 0.065 0.053 0.118 0.118 0.118h1.176c0.065 0 0.118 0.053 0.118 0.118z"></path>
<!-- 14 -->
<path fill="#fff" style="fill: var(--color2, #fff)" d="M151.278 8.018v-3.62l3.228 1.81-3.228 1.81z"></path>
<!-- 15 -->
<path fill="#000" style="fill: var(--color1, #000)" d="M158.465 3.304c-0.071-0.255-0.209-0.487-0.401-0.674s-0.432-0.321-0.694-0.39c-0.967-0.254-4.851-0.254-4.851-0.254s-3.884 0-4.851 0.254c-0.262 0.069-0.502 0.203-0.694 0.39s-0.331 0.419-0.401 0.674c-0.18 0.958-0.268 1.93-0.262 2.903-0.006 0.974 0.081 1.945 0.262 2.903 0.071 0.255 0.209 0.487 0.401 0.674s0.432 0.321 0.694 0.39c0.967 0.254 4.851 0.254 4.851 0.254s3.884 0 4.851-0.254c0.263-0.069 0.502-0.203 0.694-0.39s0.33-0.419 0.401-0.674c0.18-0.958 0.268-1.93 0.261-2.903 0.007-0.974-0.081-1.946-0.261-2.903zM151.278 8.017v-3.618l3.223 1.809-3.223 1.809z"></path>
<!-- 16 -->
<path fill="#000" style="fill: var(--color1, #000)" d="M167.198 5.959c0-2.809 0-4.214 0.873-5.087s2.277-0.873 5.087-0.873h0.497c2.809 0 4.214 0 5.087 0.873s0.873 2.277 0.873 5.087v0.497c0 2.809 0 4.214-0.873 5.087s-2.277 0.873-5.087 0.873h-0.497c-2.809 0-4.214 0-5.087-0.873s-0.873-2.277-0.873-5.087v-0.497z"></path>
<path fill="#fff" style="fill: var(--color2, #fff)" d="M173.782 8.939c-2.884 0-4.53-1.957-4.598-5.214h1.445c0.048 2.391 1.113 3.403 1.956 3.612v-3.612h1.361v2.062c0.833-0.089 1.708-1.028 2.004-2.062h1.361c-0.227 1.274-1.176 2.213-1.851 2.599 0.675 0.313 1.756 1.133 2.167 2.615h-1.498c-0.322-0.992-1.123-1.759-2.183-1.863v1.863h-0.164z"></path>
<path fill="#000" style="fill: var(--color1, #000)" d="M191.732 0.037c0.662-0.030 0.873-0.037 2.559-0.037s1.897 0.007 2.559 0.037 1.113 0.135 1.508 0.288c0.414 0.156 0.789 0.401 1.099 0.717 0.316 0.31 0.56 0.685 0.716 1.099 0.154 0.395 0.259 0.847 0.289 1.507 0.031 0.663 0.037 0.874 0.037 2.56s-0.007 1.897-0.037 2.559c-0.030 0.66-0.135 1.112-0.289 1.507-0.156 0.414-0.4 0.79-0.716 1.1-0.31 0.316-0.686 0.56-1.099 0.716-0.395 0.153-0.846 0.258-1.507 0.289-0.662 0.030-0.873 0.037-2.56 0.037s-1.897-0.007-2.559-0.037c-0.66-0.030-1.112-0.135-1.507-0.289-0.414-0.156-0.79-0.4-1.1-0.716-0.316-0.31-0.56-0.685-0.716-1.099-0.153-0.395-0.258-0.847-0.288-1.507-0.030-0.663-0.037-0.874-0.037-2.56s0.007-1.897 0.037-2.559 0.136-1.113 0.288-1.508c0.156-0.414 0.401-0.789 0.717-1.099 0.31-0.316 0.685-0.56 1.099-0.716 0.395-0.153 0.847-0.258 1.507-0.288h0.001zM196.8 1.155c-0.655-0.030-0.851-0.036-2.508-0.036s-1.854 0.006-2.508 0.036c-0.605 0.028-0.934 0.129-1.153 0.214-0.289 0.113-0.496 0.247-0.714 0.464-0.206 0.2-0.364 0.444-0.464 0.714-0.085 0.219-0.186 0.547-0.214 1.153-0.030 0.655-0.036 0.851-0.036 2.508s0.006 1.854 0.036 2.508c0.028 0.606 0.129 0.934 0.214 1.153 0.099 0.269 0.258 0.514 0.464 0.714 0.2 0.206 0.445 0.365 0.714 0.464 0.219 0.085 0.548 0.186 1.153 0.214 0.655 0.030 0.851 0.036 2.508 0.036s1.854-0.006 2.508-0.036c0.606-0.028 0.934-0.129 1.153-0.214 0.29-0.113 0.497-0.247 0.714-0.464 0.206-0.2 0.365-0.445 0.464-0.714 0.085-0.219 0.186-0.547 0.214-1.153 0.030-0.655 0.036-0.851 0.036-2.508s-0.006-1.854-0.036-2.508c-0.028-0.606-0.129-0.934-0.214-1.153-0.113-0.289-0.247-0.497-0.464-0.714-0.2-0.206-0.444-0.364-0.714-0.464-0.219-0.085-0.547-0.186-1.153-0.214zM193.498 8.121c0.443 0.184 0.936 0.209 1.395 0.070s0.856-0.433 1.122-0.832c0.266-0.399 0.386-0.878 0.339-1.355s-0.259-0.923-0.599-1.262c-0.216-0.216-0.478-0.382-0.767-0.485s-0.596-0.141-0.901-0.111-0.599 0.127-0.862 0.285c-0.263 0.157-0.487 0.371-0.657 0.626s-0.282 0.544-0.327 0.847c-0.045 0.303-0.022 0.612 0.067 0.905s0.242 0.563 0.447 0.79c0.206 0.227 0.459 0.405 0.742 0.523zM192.035 3.951c0.296-0.296 0.648-0.531 1.035-0.692s0.802-0.243 1.221-0.243c0.419 0 0.834 0.083 1.221 0.243s0.739 0.395 1.035 0.692 0.531 0.648 0.692 1.035c0.16 0.387 0.243 0.802 0.243 1.221s-0.083 0.834-0.243 1.221c-0.16 0.387-0.396 0.739-0.692 1.035-0.598 0.598-1.41 0.935-2.256 0.935s-1.658-0.336-2.256-0.935c-0.598-0.598-0.934-1.41-0.934-2.256s0.336-1.658 0.934-2.256zM198.189 3.492c0.074-0.069 0.132-0.153 0.173-0.245s0.062-0.192 0.064-0.293c0.002-0.101-0.017-0.201-0.055-0.295s-0.094-0.179-0.166-0.25c-0.072-0.071-0.156-0.128-0.25-0.166s-0.194-0.057-0.295-0.055-0.2 0.023-0.293 0.064c-0.092 0.041-0.176 0.099-0.245 0.173-0.135 0.143-0.208 0.332-0.205 0.529s0.082 0.384 0.221 0.523c0.139 0.139 0.326 0.218 0.522 0.221s0.386-0.071 0.529-0.206z"></path>
<path fill="#000" style="fill: var(--color1, #000)" d="M215.177 12.415c3.428 0 6.208-2.779 6.208-6.208s-2.779-6.208-6.208-6.208c-3.428 0-6.208 2.779-6.208 6.208s2.779 6.208 6.208 6.208z"></path>
<path fill="#fff" style="fill: var(--color2, #fff)" d="M211.779 6.142c1.81-0.788 3.016-1.308 3.62-1.559 1.724-0.717 2.082-0.842 2.316-0.846 0.051-0.001 0.166 0.012 0.24 0.072 0.063 0.051 0.080 0.12 0.088 0.168s0.019 0.158 0.010 0.244c-0.093 0.982-0.498 3.364-0.703 4.463-0.087 0.465-0.258 0.621-0.424 0.636-0.36 0.033-0.634-0.238-0.983-0.467-0.546-0.358-0.855-0.581-1.385-0.931-0.613-0.404-0.216-0.626 0.134-0.989 0.092-0.095 1.68-1.54 1.711-1.671 0.004-0.016 0.007-0.077-0.029-0.11s-0.090-0.021-0.128-0.012c-0.055 0.012-0.928 0.589-2.619 1.731-0.248 0.17-0.472 0.253-0.673 0.249-0.222-0.005-0.648-0.125-0.965-0.228-0.389-0.126-0.698-0.193-0.671-0.408 0.014-0.112 0.168-0.226 0.462-0.343z"></path>
<path fill="#000" style="fill: var(--color1, #000)" d="M231.56 0.745l-0.711 1.898v7.591h2.607v1.424h1.423l1.421-1.424h2.134l2.845-2.846v-6.643h-9.718zM232.507 1.693h7.822v5.219l-1.659 1.661h-2.607l-1.422 1.422v-1.422h-2.135v-6.88zM235.115 6.439h0.949v-2.846h-0.949v2.846zM237.722 6.439h0.948v-2.846h-0.948v2.846z"></path>
<path fill="#000" style="fill: var(--color1, #000)" d="M253.329 0h7.239c1.429 0 2.588 1.159 2.588 2.588v7.239c0 1.429-1.159 2.588-2.588 2.588h-7.239c-1.429 0-2.588-1.159-2.588-2.588v-7.239c0-1.429 1.159-2.588 2.588-2.588z"></path>
<path fill="#fff" style="fill: var(--color2, #fff)" d="M253.075 8.024v-0c0.452-0.077 0.84-0.383 1.108-0.721 0.132-0.167 0.228-0.333 0.282-0.467 0.028-0.067 0.042-0.12 0.049-0.157 0.002-0.009 0.002-0.015 0.002-0.020-0.002-0.004-0.009-0.009-0.019-0.016-0.024-0.018-0.059-0.037-0.106-0.058-0.045-0.020-0.096-0.037-0.148-0.054-0.007-0.003-0.014-0.005-0.024-0.008-0.042-0.014-0.089-0.029-0.127-0.045 0 0 0-0 0-0l0.089-0.218-1.108 1.764zM253.075 8.024c-0.099 0.017-0.188 0.070-0.249 0.149l0.186 0.145M253.075 8.024l-0.064 0.293M253.012 8.317l-0.186-0.145c-0.061 0.078-0.089 0.175-0.085 0.273v0M253.012 8.317l-0.271 0.129M252.741 8.445c0.009 0.175 0.113 0.302 0.219 0.385 0.104 0.082 0.233 0.142 0.355 0.186 0.181 0.066 0.384 0.109 0.541 0.138 0.002 0.012 0.007 0.024 0.009 0.037 0.012 0.061 0.028 0.138 0.049 0.205v0M252.741 8.445l1.174 0.95M253.915 9.396c0.016 0.058 0.049 0.138 0.122 0.205 0.078 0.071 0.179 0.11 0.296 0.11 0.066 0 0.134-0.013 0.188-0.023 0.014-0.003 0.026-0.005 0.040-0.008 0.045-0.009 0.092-0.018 0.144-0.026 0.129-0.019 0.287-0.030 0.494 0.005M253.915 9.396l1.285 0.262M261.155 8.445v0c-0.009 0.176-0.113 0.302-0.216 0.385-0.106 0.082-0.235 0.141-0.358 0.185-0.181 0.066-0.384 0.109-0.541 0.137-0.002 0.011-0.005 0.022-0.007 0.034-0.014 0.061-0.031 0.137-0.049 0.205-0.021 0.076-0.059 0.148-0.122 0.205-0.061 0.058-0.134 0.086-0.2 0.099-0.118 0.022-0.245-0.003-0.322-0.019M261.155 8.445l-1.769 1.001M261.155 8.445c0.007-0.098-0.024-0.195-0.085-0.273l-0.186 0.145M261.155 8.445l-0.271-0.128M259.339 9.677c0 0 0-0 0-0l0.047-0.231M259.339 9.677c0 0 0 0 0 0l0.047-0.231M259.339 9.677c-0.226-0.045-0.419-0.056-0.642-0.018M259.386 9.446c-0.249-0.050-0.471-0.064-0.727-0.020M258.696 9.658c0.002-0 0.002-0 0.002-0l-0.040-0.232M258.696 9.658c-0.064 0.011-0.144 0.047-0.254 0.117-0.068 0.042-0.129 0.085-0.2 0.133-0.052 0.036-0.106 0.075-0.172 0.119-0.28 0.186-0.638 0.388-1.099 0.388-0.485 0-0.849-0.199-1.134-0.386-0.071-0.046-0.129-0.087-0.181-0.124-0.066-0.046-0.127-0.087-0.193-0.129-0.111-0.070-0.193-0.107-0.264-0.119M258.696 9.658l-0.038-0.232M258.659 9.426l-3.459 0.232M260.885 8.316l0.186-0.145c-0.061-0.078-0.148-0.132-0.247-0.149v-0M260.885 8.316l-0.061-0.293M260.824 8.023c-0.445-0.075-0.833-0.38-1.104-0.719M260.824 8.023l-1.104-0.719M259.207 3.694v0c0.12 0.276 0.148 0.636 0.151 0.973 0 0.251-0.014 0.512-0.028 0.744 0.024-0.008 0.045-0.017 0.071-0.027l0.005-0.001c0.026-0.010 0.054-0.021 0.082-0.031 0.054-0.020 0.136-0.045 0.221-0.045 0.134 0 0.28 0.044 0.4 0.125s0.24 0.224 0.245 0.424l-1.146-2.162zM259.207 3.694c-0.419-0.965-1.348-1.446-2.264-1.446M259.207 3.694l-2.264-1.446M259.72 7.305c-0.134-0.167-0.231-0.333-0.287-0.467M259.72 7.305l-0.287-0.467M259.433 6.837c-0.028-0.067-0.045-0.121-0.052-0.158M259.433 6.837l-0.052-0.158M259.381 6.679c0-0.009-0.002-0.016-0.002-0.021M259.381 6.679l-0.002-0.021M259.379 6.658c0.005-0.004 0.009-0.009 0.019-0.016 0.024-0.018 0.059-0.037 0.106-0.057 0.045-0.020 0.096-0.037 0.148-0.054 0.007-0.003 0.014-0.005 0.024-0.008 0.042-0.014 0.089-0.030 0.127-0.045l-0.424 0.18zM256.944 2.248c-0.908 0-1.833 0.475-2.254 1.447l2.254-1.447zM253.553 5.778v0l1.136-2.083c-0.12 0.276-0.148 0.637-0.151 0.975 0 0.255 0.016 0.52 0.031 0.753-0.007-0.002-0.014-0.004-0.024-0.007-0.033-0.011-0.056-0.020-0.082-0.030-0.021-0.008-0.045-0.017-0.078-0.028-0.049-0.018-0.132-0.045-0.214-0.045-0.129 0-0.264 0.043-0.372 0.114s-0.216 0.189-0.247 0.351zM259.802 6.478c0.278-0.112 0.555-0.303 0.551-0.622l-0.551 0.622z"></path>
<path fill="#000" style="fill: var(--color1, #000)" d="M284.042 6.256c0-0.431-0.035-0.865-0.108-1.29h-5.852v2.444h3.353c-0.141 0.788-0.711 1.582-1.367 2.025l0.125 1.49h1.864c1.174-1.106 1.986-2.738 1.986-4.67z"></path>
<path fill="#000" style="fill: var(--color1, #000)" d="M277.932 12.415c1.678 0 3.094-0.544 4.125-1.483l-1.988-1.497c-0.558 0.375-1.294 0.549-2.134 0.549-1.624 0-3.082-1.081-3.576-2.535h-1.986v1.582c1.056 2.075 3.207 3.384 5.56 3.384z"></path>
<path fill="#000" style="fill: var(--color1, #000)" d="M274.358 7.449c-0.285-0.755-0.16-1.728 0.125-2.483l0.125-1.49-2.235-0.124c-0.965 1.719-0.986 3.868-0.021 5.587l2.007-1.49z"></path>
<path fill="#000" style="fill: var(--color1, #000)" d="M278.052 2.43c0.906-0.014 1.781 0.316 2.438 0.921l1.814-1.753c-1.148-1.042-2.673-1.615-4.252-1.597-2.402 0-4.6 1.276-5.68 3.352l2.111 1.614c0.504-1.455 1.911-2.536 3.569-2.536z"></path>
<path fill="#000" style="fill: var(--color1, #000)" d="M298.72 12.415c3.428 0 6.207-2.779 6.207-6.208s-2.779-6.208-6.207-6.208c-3.428 0-6.207 2.779-6.207 6.208s2.779 6.208 6.207 6.208z"></path>
<path fill="#fff" style="fill: var(--color2, #fff)" d="M302.941 6.274c0-0.506-0.414-0.916-0.927-0.916-0.252 0-0.475 0.095-0.638 0.257-0.631-0.447-1.506-0.741-2.471-0.777l0.424-1.958 1.372 0.286c0.014 0.345 0.304 0.623 0.661 0.623 0.362 0 0.659-0.293 0.659-0.653s-0.296-0.653-0.659-0.653c-0.261 0-0.482 0.147-0.586 0.367l-1.536-0.323c-0.045-0.007-0.089 0-0.127 0.022-0.035 0.022-0.059 0.059-0.073 0.103l-0.468 2.185c-0.986 0.029-1.868 0.315-2.508 0.777-0.162-0.154-0.393-0.257-0.638-0.257-0.511 0-0.927 0.411-0.927 0.916 0 0.374 0.224 0.689 0.551 0.836-0.016 0.088-0.024 0.183-0.024 0.279 0 1.408 1.654 2.544 3.701 2.544 2.049 0 3.704-1.136 3.704-2.544 0-0.095-0.007-0.183-0.024-0.271 0.304-0.147 0.534-0.469 0.534-0.843zM296.598 6.926c0-0.359 0.299-0.653 0.661-0.653 0.365 0 0.661 0.293 0.661 0.653s-0.296 0.653-0.661 0.653c-0.362 0-0.661-0.293-0.661-0.653zM300.285 8.649c-0.452 0.447-1.313 0.477-1.565 0.477s-1.12-0.037-1.565-0.477c-0.066-0.066-0.066-0.176 0-0.242s0.179-0.066 0.245 0c0.282 0.279 0.889 0.381 1.327 0.381s1.040-0.103 1.329-0.381c0.066-0.066 0.176-0.066 0.245 0 0.052 0.073 0.052 0.176-0.016 0.242zM300.167 7.579c-0.362 0-0.661-0.293-0.661-0.653s0.299-0.653 0.661-0.653c0.365 0 0.661 0.293 0.661 0.653s-0.296 0.653-0.661 0.653z"></path>
<path fill="#000" style="fill: var(--color1, #000)" d="M319.607 0c-3.428 0-6.209 2.779-6.209 6.208s2.781 6.208 6.209 6.208c3.428 0 6.207-2.779 6.207-6.208s-2.779-6.208-6.207-6.208zM322.635 8.949c-0.101 0.177-0.282 0.276-0.473 0.276-0.087 0-0.179-0.022-0.264-0.069-0.774-0.435-1.619-0.701-2.511-0.791-0.896-0.090-1.779 0.001-2.626 0.272-0.285 0.090-0.588-0.066-0.68-0.35-0.089-0.284 0.066-0.588 0.351-0.679 0.991-0.316 2.021-0.424 3.064-0.318 1.040 0.106 2.026 0.416 2.932 0.923 0.259 0.145 0.353 0.474 0.207 0.734zM323.379 7.063c-0.096 0.185-0.285 0.291-0.48 0.291-0.085 0-0.169-0.019-0.249-0.061-0.953-0.496-1.981-0.803-3.059-0.913-1.089-0.111-2.165-0.014-3.205 0.285-0.285 0.081-0.586-0.083-0.666-0.369-0.085-0.286 0.082-0.585 0.367-0.668 1.172-0.338 2.388-0.446 3.612-0.322 1.214 0.124 2.376 0.47 3.452 1.030 0.261 0.138 0.365 0.464 0.228 0.728zM323.647 5.495c-0.080 0-0.162-0.018-0.24-0.057-1.132-0.564-2.348-0.915-3.616-1.044-1.271-0.13-2.534-0.030-3.758 0.297-0.289 0.076-0.584-0.094-0.661-0.383s0.094-0.584 0.384-0.661c1.348-0.36 2.746-0.47 4.146-0.328 1.398 0.142 2.739 0.529 3.986 1.151 0.268 0.133 0.376 0.457 0.242 0.724-0.094 0.19-0.285 0.299-0.482 0.299z"></path>
<path fill="#000" style="fill: var(--color1, #000)" d="M344.379 0.219c-1.047-0.396-2.358-0.276-3.184 0.528-0.776 0.749-1.016 1.89-0.932 2.932 0.082 1.516 0.885 3.034 2.259 3.748-0.56 1.104-1.266 2.143-2.141 3.022-0.972-1.162-1.729-2.499-2.235-3.927-0.541-1.499-0.835-3.072-1.033-4.649-0.708-0.006-1.414 0-2.122-0.002v0.085c0.318 2.236 0.814 4.473 1.762 6.533 0.588 1.263 1.339 2.484 2.395 3.409 0.336 0.279 0.72 0.586 1.181 0.573 0.518-0.029 0.899-0.417 1.261-0.741 1.158-1.114 2.134-2.424 2.842-3.868 0.562-0.016 1.134-0.079 1.682-0.222 0.101-0.026 0.169-0.119 0.169-0.223v-0.996c0-0.161-0.158-0.275-0.313-0.236-0.278 0.069-0.562 0.108-0.849 0.114-0.779 0.036-1.591-0.238-2.125-0.819-0.642-0.685-0.847-1.683-0.741-2.593 0.052-0.371 0.195-0.793 0.565-0.953 0.341-0.156 0.765 0.022 0.911 0.362 0.32 0.723 0.132 1.536-0.049 2.269 0.336 0.613 1.172 0.744 1.807 0.603 0.426-1.025 0.56-2.191 0.294-3.274-0.181-0.734-0.687-1.4-1.405-1.675z"></path>
<path fill="#000" style="fill: var(--color1, #000)" opacity="0.2" d="M357.692 9.441c-0.506-0.059-0.995-0.524-1.139-1.086-0.040-0.15-0.049-0.401-0.019-0.547 0.047-0.241 0.16-0.445 0.346-0.628 0.296-0.292 0.664-0.443 1.466-0.607 0.485-0.099 1.442-0.244 1.468-0.223 0.007 0.006 0.019 0.056 0.024 0.111 0.026 0.3 0.165 0.638 0.358 0.874 0.045 0.053 0.087 0.105 0.092 0.114 0.009 0.012-0.002 0.036-0.038 0.081-0.075 0.095-0.939 0.98-1.125 1.152-0.179 0.166-0.492 0.444-0.572 0.507-0.094 0.074-0.256 0.161-0.374 0.201-0.099 0.034-0.304 0.070-0.365 0.065-0.012-0.001-0.066-0.007-0.122-0.014v-0zM359.774 12.464c-0.24-0.028-0.414-0.081-0.602-0.18-0.409-0.214-0.687-0.589-0.788-1.063-0.033-0.16-0.033-0.527 0-0.691 0.089-0.438 0.28-0.763 0.922-1.588 0.391-0.5 1.096-1.356 1.118-1.356 0.007 0 0.059 0.032 0.115 0.072 0.2 0.14 0.438 0.234 0.696 0.277 0.028 0.004 0.052 0.013 0.056 0.019 0.002 0.006 0.026 0.28 0.052 0.609 0.089 1.188 0.125 1.899 0.106 2.196-0.016 0.28-0.092 0.581-0.207 0.819-0.167 0.342-0.445 0.62-0.765 0.764-0.219 0.098-0.496 0.147-0.704 0.123v0zM362.988 11.808c-0.539-0.101-0.939-0.567-1.125-1.31-0.085-0.345-0.355-2.025-0.393-2.443l-0.009-0.098 0.056-0.007c0.315-0.037 0.438-0.069 0.638-0.167 0.073-0.035 0.174-0.094 0.226-0.131s0.099-0.067 0.101-0.067c0.009 0 0.527 0.579 0.791 0.883 0.409 0.472 0.739 0.876 0.852 1.047 0.329 0.494 0.445 1.053 0.311 1.486-0.064 0.201-0.174 0.367-0.336 0.501-0.304 0.249-0.751 0.372-1.111 0.305v0zM365.574 9.686c-0.414-0.042-0.819-0.22-1.172-0.517-0.202-0.171-0.798-0.715-1.080-0.989-0.238-0.231-0.701-0.704-0.701-0.717 0-0.006 0.028-0.045 0.064-0.086 0.176-0.21 0.287-0.434 0.362-0.735l0.012-0.055 0.647 0.006c1.84 0.017 2.005 0.026 2.369 0.133 0.442 0.13 0.798 0.403 0.991 0.76 0.219 0.409 0.214 0.914-0.014 1.381-0.075 0.15-0.127 0.226-0.245 0.351-0.212 0.228-0.468 0.372-0.772 0.435-0.127 0.026-0.362 0.043-0.461 0.033v-0zM363.082 6.246c-0.005-0.1-0.016-0.226-0.028-0.28-0.045-0.215-0.134-0.434-0.242-0.597-0.026-0.042-0.047-0.085-0.042-0.095 0.014-0.038 1.012-0.875 1.428-1.198 0.285-0.222 0.452-0.332 0.656-0.436 0.628-0.321 1.212-0.302 1.647 0.053 0.198 0.163 0.367 0.437 0.438 0.712 0.047 0.182 0.049 0.468 0.007 0.643-0.132 0.541-0.539 0.913-1.158 1.061-0.212 0.051-0.993 0.159-1.624 0.225-0.296 0.031-0.988 0.093-1.040 0.093h-0.035l-0.007-0.181v0zM357.176 6.322c-0.464-0.049-0.847-0.215-1.104-0.482-0.424-0.437-0.496-1.116-0.186-1.733 0.209-0.419 0.546-0.684 0.988-0.783 0.162-0.036 0.513-0.033 0.689 0.006 0.259 0.057 0.532 0.175 0.76 0.327 0.28 0.186 1.184 0.909 1.659 1.328l0.235 0.207-0.021 0.035c-0.012 0.019-0.047 0.068-0.075 0.109-0.125 0.173-0.233 0.451-0.273 0.695l-0.021 0.132-0.059 0.008c-0.224 0.030-1.176 0.113-1.595 0.139-0.311 0.020-0.864 0.027-0.998 0.013v-0zM362.576 5.082c-0.198-0.212-0.562-0.392-0.892-0.442-0.075-0.011-0.139-0.022-0.141-0.024s-0.014-0.16-0.028-0.351c-0.078-1.116-0.101-1.781-0.078-2.207 0.021-0.42 0.059-0.609 0.162-0.843 0.108-0.239 0.346-0.525 0.56-0.671 0.464-0.318 1.035-0.408 1.565-0.246 0.831 0.254 1.325 1.185 1.104 2.079-0.106 0.424-0.376 0.843-1.009 1.567-0.24 0.272-1.141 1.192-1.169 1.192-0.012 0-0.045-0.024-0.073-0.054v0zM359.751 4.475c-1.040-1.062-1.344-1.452-1.494-1.911-0.068-0.21-0.087-0.349-0.080-0.588 0.009-0.24 0.033-0.351 0.12-0.538 0.165-0.355 0.442-0.595 0.847-0.731 0.287-0.096 0.562-0.107 0.835-0.035 0.151 0.039 0.367 0.154 0.496 0.26 0.233 0.194 0.424 0.502 0.499 0.814 0.056 0.223 0.136 0.767 0.24 1.612 0.096 0.798 0.146 1.244 0.136 1.254-0.005 0.005-0.052 0.016-0.104 0.023-0.299 0.043-0.574 0.162-0.805 0.351-0.047 0.039-0.094 0.070-0.106 0.070-0.009 0-0.273-0.262-0.588-0.583l0.002 0z"></path>
<path fill="#000" style="fill: var(--color1, #000)" d="M359.774 12.246c-0.24-0.028-0.414-0.081-0.602-0.18-0.409-0.214-0.687-0.589-0.788-1.063-0.033-0.16-0.033-0.527 0-0.691 0.089-0.438 0.28-0.763 0.922-1.588 0.391-0.5 1.096-1.356 1.118-1.356 0.007 0 0.059 0.032 0.115 0.072 0.2 0.14 0.438 0.234 0.696 0.277 0.028 0.004 0.052 0.013 0.056 0.019 0.002 0.006 0.026 0.28 0.052 0.609 0.089 1.188 0.125 1.899 0.106 2.196-0.016 0.28-0.092 0.581-0.207 0.819-0.167 0.342-0.445 0.62-0.765 0.764-0.219 0.098-0.496 0.147-0.704 0.123v0zM362.988 11.589c-0.539-0.101-0.939-0.567-1.125-1.31-0.085-0.345-0.355-2.025-0.393-2.443l-0.009-0.098 0.056-0.007c0.315-0.037 0.438-0.069 0.638-0.167 0.073-0.035 0.174-0.094 0.226-0.131s0.099-0.067 0.101-0.067c0.009 0 0.527 0.579 0.791 0.883 0.409 0.472 0.739 0.876 0.852 1.047 0.329 0.494 0.445 1.054 0.311 1.486-0.064 0.201-0.174 0.367-0.336 0.501-0.304 0.249-0.751 0.372-1.111 0.305v0zM365.574 9.467c-0.414-0.042-0.819-0.22-1.172-0.517-0.202-0.171-0.798-0.715-1.080-0.989-0.238-0.231-0.701-0.704-0.701-0.717 0-0.006 0.028-0.045 0.064-0.086 0.176-0.21 0.287-0.434 0.362-0.735l0.012-0.055 0.647 0.006c1.84 0.017 2.005 0.026 2.369 0.133 0.442 0.13 0.798 0.403 0.991 0.76 0.219 0.409 0.214 0.914-0.014 1.381-0.075 0.15-0.127 0.226-0.245 0.351-0.212 0.228-0.468 0.372-0.772 0.435-0.127 0.026-0.362 0.043-0.461 0.033v-0zM363.082 6.027c-0.005-0.1-0.016-0.226-0.028-0.28-0.045-0.215-0.134-0.434-0.242-0.597-0.026-0.042-0.047-0.085-0.042-0.095 0.014-0.038 1.012-0.875 1.428-1.198 0.285-0.221 0.452-0.332 0.656-0.436 0.628-0.321 1.212-0.302 1.647 0.053 0.198 0.163 0.367 0.437 0.438 0.712 0.047 0.182 0.049 0.468 0.007 0.643-0.132 0.541-0.539 0.913-1.158 1.061-0.212 0.051-0.993 0.159-1.624 0.225-0.296 0.031-0.988 0.093-1.040 0.093h-0.035l-0.007-0.181v0zM357.176 6.103c-0.464-0.049-0.847-0.215-1.104-0.482-0.424-0.437-0.496-1.116-0.186-1.733 0.209-0.419 0.546-0.684 0.988-0.783 0.162-0.036 0.513-0.033 0.689 0.006 0.259 0.057 0.532 0.175 0.76 0.327 0.28 0.186 1.184 0.909 1.659 1.328l0.235 0.207-0.021 0.035c-0.012 0.019-0.047 0.068-0.075 0.109-0.125 0.173-0.233 0.451-0.273 0.694l-0.021 0.132-0.059 0.008c-0.224 0.030-1.176 0.113-1.595 0.139-0.311 0.020-0.864 0.027-0.998 0.013v-0zM362.576 4.864c-0.198-0.212-0.562-0.392-0.892-0.442-0.075-0.011-0.139-0.022-0.141-0.024s-0.014-0.16-0.028-0.351c-0.078-1.116-0.101-1.781-0.078-2.207 0.021-0.42 0.059-0.609 0.162-0.843 0.108-0.239 0.346-0.525 0.56-0.671 0.464-0.318 1.035-0.408 1.565-0.246 0.831 0.254 1.325 1.185 1.104 2.079-0.106 0.424-0.376 0.843-1.009 1.567-0.24 0.272-1.141 1.192-1.169 1.192-0.012 0-0.045-0.024-0.073-0.054v0zM359.751 4.256c-1.040-1.062-1.344-1.452-1.494-1.911-0.068-0.21-0.087-0.349-0.080-0.588 0.009-0.24 0.033-0.351 0.12-0.538 0.165-0.355 0.442-0.595 0.847-0.731 0.287-0.096 0.562-0.107 0.835-0.035 0.151 0.039 0.367 0.154 0.496 0.26 0.233 0.194 0.424 0.502 0.499 0.814 0.056 0.223 0.136 0.767 0.24 1.612 0.096 0.798 0.146 1.244 0.136 1.254-0.005 0.005-0.052 0.016-0.104 0.023-0.299 0.043-0.574 0.162-0.805 0.351-0.047 0.039-0.094 0.070-0.106 0.070-0.009 0-0.273-0.262-0.588-0.583l0.002 0z"></path>
<path fill="#fff" style="fill: var(--color2, #fff)" opacity="0.2" d="M363.12 0.002c-0.339 0.015-0.671 0.124-0.96 0.323-0.214 0.147-0.452 0.433-0.56 0.672-0.104 0.234-0.141 0.423-0.162 0.843-0.007 0.131-0.009 0.296-0.007 0.479 0.002-0.091 0.002-0.184 0.007-0.26 0.021-0.42 0.059-0.609 0.162-0.843 0.108-0.239 0.346-0.525 0.56-0.672 0.464-0.318 1.035-0.408 1.565-0.246 0.664 0.203 1.111 0.838 1.153 1.542 0.049-0.787-0.421-1.537-1.153-1.76-0.195-0.060-0.4-0.086-0.605-0.077zM359.567 0.407c-0.139 0.006-0.28 0.033-0.424 0.081-0.405 0.136-0.682 0.375-0.847 0.731-0.087 0.187-0.111 0.298-0.118 0.538-0.002 0.064-0.002 0.129 0 0.193 0.009-0.22 0.035-0.333 0.118-0.512 0.165-0.355 0.442-0.595 0.847-0.731 0.287-0.096 0.562-0.107 0.838-0.035 0.148 0.039 0.365 0.153 0.494 0.26 0.233 0.194 0.424 0.502 0.499 0.814 0.056 0.223 0.136 0.767 0.24 1.612 0.066 0.54 0.099 0.848 0.118 1.040 0.005-0.001 0.019-0.003 0.019-0.004 0.009-0.010-0.040-0.456-0.136-1.254-0.104-0.846-0.184-1.389-0.24-1.612-0.075-0.312-0.266-0.621-0.499-0.814-0.129-0.107-0.346-0.221-0.494-0.26-0.139-0.036-0.275-0.052-0.414-0.046v0zM357.214 3.080c-0.129-0.001-0.259 0.007-0.339 0.026-0.445 0.099-0.779 0.364-0.988 0.783-0.146 0.29-0.205 0.593-0.184 0.879 0.016-0.219 0.075-0.443 0.184-0.66 0.209-0.419 0.544-0.684 0.988-0.783 0.162-0.036 0.513-0.034 0.689 0.006 0.256 0.057 0.532 0.175 0.76 0.327 0.28 0.186 1.184 0.909 1.659 1.328l0.144 0.126c0.028-0.039 0.059-0.084 0.071-0.102l0.021-0.035-0.235-0.207c-0.475-0.419-1.379-1.142-1.659-1.328-0.228-0.152-0.504-0.27-0.76-0.327-0.089-0.020-0.221-0.030-0.351-0.031zM365.751 3.194c-0.28-0.009-0.581 0.067-0.896 0.227-0.205 0.104-0.372 0.214-0.656 0.436-0.416 0.323-1.414 1.16-1.428 1.198-0.005 0.010 0.014 0.053 0.042 0.095 0.012 0.017 0.021 0.036 0.033 0.054 0.188-0.177 0.981-0.841 1.353-1.128 0.285-0.222 0.452-0.332 0.656-0.436 0.628-0.321 1.212-0.302 1.647 0.053 0.198 0.163 0.367 0.437 0.438 0.712 0.016 0.068 0.026 0.151 0.031 0.237 0.012-0.155 0-0.33-0.031-0.456-0.071-0.275-0.24-0.549-0.438-0.712-0.216-0.178-0.473-0.271-0.751-0.28zM363.059 6.368l-0.012 0.055c-0.075 0.301-0.186 0.525-0.362 0.735-0.035 0.041-0.064 0.079-0.064 0.085 0 0.002 0.068 0.069 0.092 0.096 0.16-0.199 0.264-0.414 0.334-0.698l0.012-0.055 0.647 0.006c1.84 0.017 2.005 0.026 2.369 0.132 0.442 0.13 0.798 0.403 0.991 0.76 0.089 0.167 0.139 0.35 0.153 0.54 0.019-0.267-0.031-0.529-0.153-0.759-0.193-0.356-0.548-0.63-0.991-0.76-0.362-0.106-0.529-0.116-2.358-0.132-0.254 0.023-0.565 0.053-0.593 0.053h-0.035l-0.002-0.059-0.028-0zM362.482 7.367c-0.002 0-0.049 0.030-0.101 0.067s-0.153 0.096-0.226 0.131c-0.2 0.097-0.322 0.13-0.638 0.167l-0.056 0.006 0.009 0.098c0.002 0.024 0.012 0.086 0.014 0.118l0.033-0.004c0.315-0.037 0.438-0.069 0.638-0.167 0.073-0.035 0.174-0.095 0.226-0.131s0.099-0.067 0.101-0.067c0.009 0 0.527 0.579 0.791 0.883 0.409 0.472 0.739 0.876 0.854 1.047 0.212 0.319 0.332 0.665 0.358 0.986 0.026-0.379-0.096-0.812-0.358-1.205-0.115-0.171-0.445-0.575-0.854-1.047-0.264-0.304-0.781-0.883-0.791-0.883zM360.424 7.368c-0.021 0-0.727 0.856-1.118 1.356-0.642 0.825-0.833 1.15-0.922 1.587-0.021 0.106-0.026 0.293-0.021 0.457 0.005-0.092 0.009-0.179 0.021-0.238 0.089-0.438 0.28-0.763 0.922-1.587 0.391-0.5 1.096-1.356 1.118-1.356 0.007 0 0.059 0.032 0.115 0.072 0.2 0.14 0.438 0.234 0.696 0.277 0.028 0.004 0.052 0.013 0.054 0.019 0.005 0.006 0.028 0.28 0.054 0.608 0.064 0.86 0.099 1.462 0.108 1.846 0.005-0.346-0.028-1.006-0.108-2.065-0.026-0.329-0.049-0.603-0.054-0.609-0.002-0.006-0.026-0.014-0.054-0.018-0.259-0.043-0.496-0.137-0.696-0.277-0.056-0.040-0.108-0.072-0.115-0.072v0z"></path>
<path fill="#171717" style="fill: var(--color3, #171717)" d="M357.692 9.222c-0.506-0.059-0.995-0.524-1.139-1.086-0.040-0.15-0.049-0.401-0.019-0.547 0.047-0.241 0.16-0.445 0.346-0.628 0.296-0.292 0.664-0.443 1.466-0.607 0.485-0.099 1.442-0.244 1.468-0.223 0.007 0.006 0.019 0.056 0.024 0.111 0.026 0.3 0.165 0.638 0.358 0.873 0.045 0.053 0.085 0.105 0.092 0.114 0.009 0.012-0.002 0.036-0.038 0.081-0.075 0.095-0.939 0.98-1.125 1.152-0.179 0.166-0.492 0.444-0.572 0.507-0.094 0.074-0.256 0.161-0.374 0.201-0.099 0.034-0.304 0.070-0.365 0.065-0.012-0.001-0.066-0.007-0.122-0.014v-0z"></path>
<path fill="#fff" style="fill: var(--color2, #fff)" opacity="0.2" d="M359.814 6.131c-0.026-0.021-0.984 0.125-1.466 0.223-0.805 0.164-1.172 0.315-1.468 0.607-0.186 0.183-0.299 0.388-0.346 0.629-0.016 0.085-0.021 0.206-0.012 0.322 0.002-0.037 0.005-0.073 0.012-0.103 0.047-0.241 0.16-0.445 0.346-0.629 0.296-0.292 0.664-0.443 1.468-0.607 0.482-0.099 1.44-0.244 1.466-0.223 0.007 0.006 0.019 0.056 0.024 0.111 0.026 0.3 0.165 0.638 0.358 0.874 0.007 0.008 0.009 0.009 0.014 0.017 0.005-0.006 0.038-0.038 0.040-0.041 0.035-0.045 0.047-0.069 0.038-0.080-0.005-0.009-0.047-0.061-0.092-0.114-0.193-0.235-0.332-0.573-0.358-0.874-0.005-0.055-0.016-0.104-0.024-0.111z"></path>
<path fill="#000" style="fill: var(--color1, #000)" opacity="0.2" d="M361.461 8.095c0.979 0 1.774-0.784 1.774-1.75s-0.795-1.75-1.774-1.75c-0.979 0-1.774 0.784-1.774 1.75s0.795 1.75 1.774 1.75z"></path>
<path fill="#000" style="fill: var(--color1, #000)" d="M361.461 7.876c0.979 0 1.774-0.784 1.774-1.75s-0.795-1.75-1.774-1.75c-0.979 0-1.774 0.784-1.774 1.75s0.795 1.75 1.774 1.75z"></path>
<path fill="#000" style="fill: var(--color1, #000)" d="M11.168 19.529h-9.879c-0.344 0.004-0.673 0.143-0.914 0.385s-0.376 0.569-0.374 0.909v9.881c-0.002 0.341 0.134 0.669 0.377 0.912s0.573 0.38 0.919 0.383h9.879c0.346-0.003 0.676-0.14 0.919-0.383s0.378-0.571 0.377-0.912v-9.881c0.001-0.17-0.032-0.338-0.097-0.494s-0.161-0.3-0.282-0.42c-0.121-0.12-0.265-0.216-0.423-0.281s-0.329-0.099-0.5-0.099v0zM6.23 30.921c-1.376-0.010-2.691-0.559-3.656-1.526s-1.503-2.272-1.494-3.63c-0.009-1.358 0.528-2.663 1.494-3.63s2.281-1.516 3.656-1.526c1.376 0.010 2.692 0.558 3.659 1.525s1.504 2.273 1.495 3.631c0.009 1.358-0.529 2.664-1.495 3.631s-2.283 1.516-3.659 1.525z"></path>
<path fill="#000" style="fill: var(--color1, #000)" d="M10.824 25.764l-3.519-1.529 0.283 0.98h-2.94l0.283-0.98-3.519 1.53 3.521 1.529-0.283-0.98h2.94l-0.283 0.98 3.516-1.529z"></path>
<path fill="#000" style="fill: var(--color1, #000)" d="M24.558 26.762c1.997 0 3.616-1.619 3.616-3.616s-1.619-3.616-3.616-3.616c-1.997 0-3.616 1.619-3.616 3.616s1.619 3.616 3.616 3.616z"></path>
<path fill="#000" style="fill: var(--color1, #000)" d="M29.795 32c1.997 0 3.616-1.619 3.616-3.616s-1.619-3.616-3.616-3.616c-1.997 0-3.616 1.619-3.616 3.616s1.619 3.616 3.616 3.616z"></path>
<path fill="#000" style="fill: var(--color1, #000)" d="M27.176 31.751c3.306 0 5.986-2.68 5.986-5.986s-2.68-5.986-5.986-5.986c-3.306 0-5.986 2.68-5.986 5.986s2.68 5.986 5.986 5.986z"></path>
<path fill="#fff" style="fill: var(--color2, #fff)" d="M25.624 25.651c-0.234-0.154-0.429-0.36-0.57-0.602-0.136-0.256-0.204-0.542-0.196-0.832-0.010-0.368 0.115-0.726 0.352-1.007 0.247-0.282 0.563-0.494 0.918-0.614 0.386-0.136 0.793-0.205 1.202-0.202 0.268-0.003 0.536 0.018 0.8 0.061 0.189 0.029 0.375 0.077 0.555 0.143 0.165 0.056 0.314 0.151 0.434 0.277 0.088 0.104 0.136 0.236 0.134 0.373 0.003 0.071-0.008 0.142-0.032 0.208s-0.061 0.128-0.109 0.18c-0.045 0.048-0.1 0.086-0.162 0.112s-0.127 0.038-0.193 0.036c-0.091-0.001-0.181-0.021-0.264-0.059-0.204-0.091-0.413-0.168-0.627-0.23-0.197-0.052-0.4-0.077-0.604-0.075-0.266-0.010-0.528 0.057-0.757 0.193-0.096 0.059-0.175 0.142-0.228 0.241s-0.079 0.212-0.074 0.324c-0.001 0.148 0.055 0.291 0.157 0.398 0.121 0.126 0.264 0.228 0.423 0.302 0.177 0.088 0.442 0.205 0.793 0.35 0.039 0.012 0.077 0.028 0.114 0.045 0.343 0.136 0.672 0.305 0.982 0.505 0.245 0.16 0.451 0.372 0.604 0.62 0.151 0.261 0.226 0.56 0.218 0.861 0.013 0.37-0.093 0.734-0.302 1.039-0.213 0.289-0.507 0.507-0.846 0.627-0.407 0.145-0.838 0.216-1.27 0.207-0.595 0.021-1.186-0.091-1.732-0.327-0.14-0.062-0.262-0.157-0.357-0.277-0.079-0.11-0.119-0.242-0.116-0.377-0.004-0.071 0.008-0.143 0.034-0.209s0.067-0.126 0.118-0.175c0.108-0.095 0.249-0.144 0.393-0.139 0.16 0.002 0.318 0.043 0.459 0.118 0.176 0.088 0.314 0.154 0.416 0.198 0.116 0.048 0.236 0.087 0.359 0.114 0.152 0.033 0.306 0.049 0.461 0.048 0.274 0.020 0.547-0.053 0.775-0.207 0.085-0.067 0.154-0.153 0.199-0.252s0.067-0.206 0.062-0.315c0-0.154-0.058-0.302-0.164-0.414-0.139-0.144-0.302-0.262-0.482-0.35-0.212-0.112-0.511-0.248-0.896-0.409-0.344-0.137-0.674-0.309-0.984-0.512z"></path>
<path fill="#000" style="fill: var(--color1, #000)" opacity="0.1" d="M25.688 19.711c-0.158-0.053-0.32-0.095-0.484-0.125-0.985 0.316-1.88 0.862-2.611 1.594s-1.278 1.627-1.594 2.611c0.030 0.164 0.072 0.326 0.125 0.484 0.044 0.143 0.1 0.282 0.167 0.416 0.217-1.197 0.794-2.3 1.654-3.16s1.963-1.437 3.16-1.654c-0.134-0.067-0.273-0.123-0.416-0.167z"></path>
<path fill="#000" style="fill: var(--color1, #000)" opacity="0.1" d="M25.688 19.711c-1.105 0.272-2.114 0.842-2.918 1.646s-1.374 1.814-1.646 2.918c0.044 0.143 0.1 0.282 0.167 0.416 0.217-1.197 0.794-2.3 1.654-3.16s1.963-1.437 3.16-1.654c-0.134-0.067-0.273-0.123-0.416-0.167zM33.23 27.254c-0.044-0.143-0.1-0.282-0.167-0.416-0.217 1.197-0.794 2.3-1.654 3.16s-1.963 1.437-3.16 1.654c0.134 0.067 0.273 0.123 0.416 0.167 0.158 0.053 0.32 0.095 0.484 0.125 0.985-0.316 1.88-0.862 2.611-1.594s1.278-1.627 1.594-2.611c-0.030-0.164-0.072-0.326-0.125-0.484z"></path>
<path fill="#000" style="fill: var(--color1, #000)" opacity="0.1" d="M33.063 26.837c-0.217 1.197-0.794 2.3-1.654 3.16s-1.963 1.437-3.16 1.654c0.134 0.067 0.273 0.123 0.416 0.167 1.104-0.272 2.114-0.842 2.918-1.646s1.374-1.813 1.646-2.918c-0.044-0.143-0.1-0.282-0.167-0.416z"></path>
<path fill="#000" style="fill: var(--color1, #000)" d="M48.11 19.529c-2.751 0-4.98 2.195-4.98 4.903 0 3.219 4.049 7.568 4.98 7.568s4.98-4.227 4.98-7.568c-0.001-2.707-2.23-4.903-4.98-4.903zM48.088 28.103c-1.958 0-3.545-1.563-3.545-3.491s1.587-3.49 3.545-3.49c1.957 0 3.544 1.563 3.544 3.49s-1.587 3.49-3.544 3.49z"></path>
<path fill="#030303" style="fill: var(--color4, #030303)" d="M48.088 21.797c-0.088 0-0.175 0.004-0.261 0.012 0.211 0.24 0.339 0.553 0.339 0.895 0 0.756-0.622 1.369-1.39 1.369-0.254 0.001-0.503-0.068-0.721-0.198s-0.396-0.318-0.514-0.543c-0.2 0.384-0.312 0.819-0.312 1.28 0 1.555 1.28 2.816 2.86 2.816s2.86-1.261 2.86-2.816c0-1.555-1.281-2.816-2.86-2.816v0.001z"></path>
<path fill="#000" style="fill: var(--color1, #000)" d="M69.059 19.529c-3.444 0-6.235 2.585-6.235 5.773 0.008 0.876 0.22 1.738 0.621 2.516s0.978 1.453 1.685 1.969l0.016 0.011v2.2l2.124-1.165c0.536 0.153 1.151 0.241 1.787 0.241h0.002c3.444 0 6.235-2.585 6.235-5.773s-2.792-5.774-6.235-5.774zM69.678 27.304l-1.587-1.696-3.099 1.694 3.408-3.616 1.627 1.693 3.060-1.693-3.409 3.618z"></path>
<path fill="#000" style="fill: var(--color1, #000)" d="M87.294 19.529h5.412c1.949 0 3.529 1.58 3.529 3.529v5.412c0 1.949-1.58 3.529-3.529 3.529h-5.412c-1.949 0-3.529-1.58-3.529-3.529v-5.412c0-1.949 1.58-3.529 3.529-3.529z"></path>
<path fill="#fff" style="fill: var(--color2, #fff)" d="M85.218 27.761c0.022 0 0.040-0.017 0.043-0.041l0.119-0.904-0.119-0.925c-0.003-0.024-0.022-0.042-0.044-0.042s-0.042 0.018-0.044 0.042l-0.104 0.925 0.104 0.904c0.003 0.024 0.022 0.042 0.044 0.042h0z"></path>
<path fill="#fff" style="fill: var(--color2, #fff)" d="M84.826 27.417c0.021 0 0.039-0.016 0.042-0.040l0.092-0.561-0.092-0.572c-0.003-0.024-0.021-0.040-0.042-0.040-0.023 0-0.040 0.016-0.043 0.040l-0.077 0.572 0.077 0.561c0.004 0.024 0.021 0.040 0.043 0.040z"></path>
<path fill="#fff" style="fill: var(--color2, #fff)" d="M85.685 25.719c-0.001-0.014-0.007-0.026-0.016-0.036s-0.023-0.015-0.036-0.015c-0.013 0-0.026 0.005-0.036 0.015s-0.016 0.022-0.016 0.036l-0.099 1.097 0.099 1.057c0.001 0.013 0.007 0.026 0.017 0.036s0.023 0.014 0.036 0.014c0.013 0 0.026-0.005 0.036-0.015s0.016-0.022 0.017-0.036l0.112-1.056-0.112-1.097h-0z"></path>
<path fill="#fff" style="fill: var(--color2, #fff)" d="M86.052 27.965c0.016-0 0.031-0.007 0.042-0.017s0.018-0.026 0.020-0.042l0.106-1.090-0.106-1.128c-0.001-0.016-0.008-0.031-0.020-0.042s-0.027-0.017-0.042-0.017c-0.016 0-0.031 0.006-0.043 0.017s-0.018 0.026-0.019 0.042l-0.094 1.127 0.094 1.090c0.001 0.016 0.008 0.031 0.019 0.042s0.027 0.017 0.043 0.017v-0z"></path>
<path fill="#fff" style="fill: var(--color2, #fff)" d="M86.475 27.983c0.018 0 0.036-0.007 0.049-0.020s0.021-0.030 0.022-0.048l0.1-1.099-0.1-1.046c-0.001-0.018-0.009-0.036-0.023-0.048s-0.031-0.020-0.049-0.020-0.036 0.007-0.049 0.020c-0.013 0.012-0.021 0.030-0.022 0.048l-0.088 1.046 0.088 1.099c0.001 0.018 0.009 0.036 0.022 0.048s0.031 0.020 0.049 0.020z"></path>
<path fill="#fff" style="fill: var(--color2, #fff)" d="M87.075 26.816l-0.094-1.701c-0.001-0.021-0.010-0.040-0.025-0.055s-0.035-0.023-0.055-0.023c-0.021 0-0.040 0.008-0.055 0.022s-0.024 0.034-0.025 0.055l-0.083 1.701 0.083 1.099c0.002 0.020 0.011 0.039 0.026 0.052s0.034 0.021 0.054 0.021 0.039-0.007 0.054-0.021c0.015-0.013 0.024-0.032 0.026-0.052l0.094-1.099z"></path>
<path fill="#fff" style="fill: var(--color2, #fff)" d="M87.332 27.994c0.023 0 0.045-0.009 0.061-0.025s0.026-0.038 0.028-0.061v0.001l0.088-1.092-0.088-2.091c-0.002-0.023-0.012-0.044-0.028-0.060s-0.038-0.024-0.061-0.024c-0.023 0-0.044 0.009-0.061 0.024s-0.027 0.037-0.028 0.060l-0.077 2.091 0.077 1.092c0.001 0.023 0.011 0.045 0.028 0.061s0.039 0.024 0.062 0.024v0z"></path>
<path fill="#fff" style="fill: var(--color2, #fff)" d="M87.764 24.457c-0.025 0-0.050 0.010-0.068 0.028s-0.029 0.042-0.030 0.067l-0.071 2.264 0.071 1.081c0.001 0.026 0.012 0.050 0.031 0.067s0.043 0.027 0.068 0.027c0.025 0 0.050-0.009 0.068-0.027s0.029-0.042 0.030-0.067l0.081-1.081-0.081-2.264c-0.001-0.026-0.012-0.050-0.030-0.068s-0.043-0.027-0.068-0.027z"></path>
<path fill="#fff" style="fill: var(--color2, #fff)" d="M88.2 27.994c0.028 0 0.055-0.010 0.075-0.029s0.032-0.046 0.033-0.074v0.001l0.075-1.075-0.075-2.34c-0.001-0.028-0.012-0.055-0.033-0.074s-0.047-0.030-0.074-0.030c-0.028-0-0.055 0.010-0.075 0.029s-0.032 0.046-0.032 0.074l-0.068 2.34 0.068 1.075c0.001 0.058 0.048 0.103 0.107 0.103h-0z"></path>
<path fill="#fff" style="fill: var(--color2, #fff)" d="M88.64 27.993c0.030 0 0.059-0.011 0.081-0.032s0.034-0.050 0.035-0.080v0.001l0.069-1.064-0.069-2.281c-0.001-0.030-0.014-0.059-0.036-0.080s-0.050-0.032-0.080-0.032c-0.030-0-0.059 0.011-0.081 0.032s-0.035 0.050-0.036 0.080l-0.061 2.281 0.061 1.064c0.001 0.063 0.053 0.112 0.116 0.112v0z"></path>
<path fill="#fff" style="fill: var(--color2, #fff)" d="M89.272 26.817l-0.063-2.198c-0.001-0.033-0.015-0.064-0.038-0.086s-0.055-0.035-0.087-0.035c-0.032-0-0.064 0.012-0.087 0.035s-0.037 0.054-0.038 0.087l-0.056 2.198 0.056 1.058c0.001 0.033 0.015 0.064 0.038 0.086s0.055 0.035 0.087 0.034c0.032 0 0.064-0.012 0.088-0.035s0.037-0.054 0.038-0.087v0.001l0.063-1.058z"></path>
<path fill="#fff" style="fill: var(--color2, #fff)" d="M89.53 27.997c0.073 0 0.133-0.058 0.134-0.13l0.057-1.050-0.057-2.615c-0.001-0.035-0.016-0.068-0.041-0.093s-0.059-0.038-0.093-0.037c-0.035-0-0.068 0.013-0.093 0.037s-0.040 0.057-0.041 0.093l-0.051 2.614 0.051 1.052c0.001 0.071 0.062 0.129 0.134 0.129z"></path>
<path fill="#fff" style="fill: var(--color2, #fff)" d="M89.975 23.826c-0.037-0.001-0.073 0.013-0.1 0.039s-0.043 0.062-0.044 0.099l-0.059 2.853 0.059 1.035c0.001 0.037 0.017 0.073 0.044 0.098s0.063 0.040 0.1 0.039c0.037 0 0.073-0.014 0.1-0.040s0.042-0.062 0.044-0.099v0.001l0.064-1.035-0.064-2.853c-0.001-0.037-0.017-0.073-0.043-0.099s-0.062-0.040-0.099-0.040z"></path>
<path fill="#fff" style="fill: var(--color2, #fff)" d="M90.382 27.998l3.609 0.002c0.72 0 1.303-0.567 1.303-1.267s-0.583-1.266-1.303-1.266c-0.178 0-0.348 0.035-0.504 0.098-0.103-1.141-1.088-2.036-2.288-2.036-0.293 0-0.58 0.056-0.832 0.152-0.098 0.037-0.125 0.075-0.126 0.149v4.019c0.001 0.038 0.016 0.074 0.042 0.102s0.061 0.044 0.099 0.048z"></path>
<path fill="#000" style="fill: var(--color1, #000)" d="M117.176 25.765c0 3.444-2.792 6.235-6.235 6.235s-6.235-2.792-6.235-6.235c0-3.444 2.792-6.235 6.235-6.235s6.235 2.792 6.235 6.235z"></path>
<path fill="#fff" style="fill: var(--color2, #fff)" d="M108.588 25.882h-1.176v1.176c0 0.78 0.632 1.412 1.412 1.412h0.353c0.78 0 1.412-0.632 1.412-1.412v-2.471c0-0.195 0.158-0.353 0.353-0.353s0.353 0.158 0.353 0.353v0.471l0.471 0.235 0.706-0.235v-0.588c0-0.78-0.632-1.412-1.412-1.412h-0.353c-0.78 0-1.412 0.632-1.412 1.412v2.353c0 0.195-0.158 0.353-0.353 0.353s-0.353-0.158-0.353-0.353v-0.941z"></path>
<path fill="#fff" style="fill: var(--color2, #fff)" d="M111.765 26l-0.471-0.235v1.294c0 0.78 0.632 1.412 1.412 1.412h0.235c0.78 0 1.412-0.632 1.412-1.412v-1.176h-1.176v0.941c0 0.195-0.158 0.353-0.353 0.353s-0.353-0.158-0.353-0.353v-1.059l-0.706 0.235z"></path>
<path fill="#000" style="fill: var(--color1, #000)" d="M127.765 19.529h8.235c1.17 0 2.118 0.948 2.118 2.118v8.235c0 1.17-0.948 2.118-2.118 2.118h-8.235c-1.17 0-2.118-0.948-2.118-2.118v-8.235c0-1.17 0.948-2.118 2.118-2.118z"></path>
<path fill="#fff" style="fill: var(--color2, #fff)" d="M136.235 25.765c0 1.494-1.197 2.706-2.674 2.706s-2.673-1.212-2.673-2.706 1.197-2.706 2.673-2.706h2.674v2.706z"></path>
<path fill="#fff" style="fill: var(--color2, #fff)" d="M127.765 25.765c0-1.494 1.197-2.706 2.673-2.706s2.674 1.212 2.674 2.706-1.197 2.706-2.674 2.706h-2.673v-2.706z"></path>
<path fill="#eee" style="fill: var(--color5, #eee)" d="M133.138 25.684c0-1.050-0.741-1.848-1.138-2.116-0.371 0.25-1.112 1.002-1.112 2.116s0.715 1.983 1.112 2.277c0.397-0.295 1.138-0.964 1.138-2.277z"></path>
<path fill="#000" style="fill: var(--color1, #000)" d="M146.588 25.489c0-2.809 0-4.214 0.873-5.087s2.277-0.873 5.087-0.873h0.497c2.809 0 4.214 0 5.087 0.873s0.873 2.277 0.873 5.087v0.497c0 2.809 0 4.214-0.873 5.087s-2.277 0.873-5.087 0.873h-0.497c-2.809 0-4.214 0-5.087-0.873s-0.873-2.277-0.873-5.087v-0.497z"></path>
<path fill="#000" style="fill: var(--color1, #000)" d="M151.157 28.215l0.114 0.056c0.474 0.281 1.004 0.412 1.535 0.412 1.667 0 3.031-1.348 3.031-2.996 0-0.787-0.322-1.554-0.89-2.116s-1.326-0.88-2.141-0.88c-1.667 0-3.031 1.348-3.012 3.015 0 0.562 0.171 1.105 0.455 1.573l0.076 0.112-0.303 1.105 1.137-0.281z"></path>
<path fill="#fff" style="fill: var(--color2, #fff)" d="M155.268 23.272c-0.644-0.655-1.535-1.011-2.444-1.011-1.932 0-3.486 1.554-3.467 3.445 0 0.599 0.171 1.18 0.455 1.704l-0.493 1.779 1.838-0.468c0.512 0.281 1.080 0.412 1.648 0.412 1.913 0 3.467-1.554 3.467-3.445 0-0.918-0.36-1.779-1.004-2.416zM152.824 28.552c-0.511 0-1.023-0.131-1.459-0.393l-0.114-0.056-1.099 0.281 0.284-1.067-0.076-0.112c-0.834-1.329-0.436-3.090 0.928-3.914s3.126-0.431 3.959 0.918c0.834 1.348 0.436 3.090-0.928 3.913-0.436 0.281-0.966 0.431-1.497 0.431zM154.492 26.474l-0.208-0.094c0 0-0.303-0.131-0.492-0.225-0.019 0-0.038-0.019-0.057-0.019-0.057 0-0.095 0.019-0.132 0.037 0 0-0.019 0.019-0.284 0.318-0.019 0.037-0.057 0.056-0.095 0.056h-0.019c-0.019 0-0.057-0.019-0.076-0.037l-0.095-0.038c-0.208-0.094-0.398-0.206-0.549-0.356-0.038-0.037-0.095-0.075-0.132-0.112-0.133-0.131-0.265-0.281-0.36-0.449l-0.019-0.037c-0.019-0.019-0.019-0.038-0.038-0.075 0-0.037 0-0.075 0.019-0.094 0 0 0.076-0.094 0.132-0.15 0.038-0.037 0.057-0.094 0.095-0.131 0.038-0.056 0.057-0.131 0.038-0.187-0.019-0.094-0.246-0.599-0.303-0.712-0.038-0.056-0.076-0.075-0.133-0.094h-0.208c-0.038 0-0.076 0.019-0.114 0.019l-0.019 0.019c-0.038 0.019-0.076 0.056-0.114 0.075-0.038 0.038-0.057 0.075-0.095 0.112-0.132 0.168-0.208 0.374-0.208 0.58 0 0.15 0.038 0.3 0.095 0.431l0.019 0.056c0.17 0.356 0.398 0.674 0.701 0.955l0.076 0.075c0.057 0.056 0.114 0.094 0.152 0.15 0.398 0.337 0.852 0.58 1.364 0.712 0.057 0.019 0.133 0.019 0.189 0.037h0.189c0.095 0 0.208-0.037 0.284-0.075 0.057-0.038 0.095-0.038 0.132-0.075l0.038-0.037c0.038-0.037 0.076-0.056 0.114-0.094s0.076-0.075 0.095-0.112c0.038-0.075 0.057-0.169 0.076-0.262v-0.131c0 0-0.019-0.019-0.057-0.038z"></path>
<path fill="#000" style="fill: var(--color1, #000)" d="M167.729 27.547c0.389 1.273 1.177 2.387 2.247 3.179s2.366 1.219 3.697 1.219c3.433 0 6.216-2.78 6.216-6.208s-2.783-6.208-6.215-6.208c-1.576-0.001-3.093 0.598-4.244 1.674s-1.851 2.549-1.956 4.121l0.002 0.005 3.34 1.373c0.301-0.2 0.658-0.298 1.019-0.282l1.521-2.207-0.001-0.031c0.001-0.626 0.249-1.226 0.692-1.669s1.043-0.692 1.668-0.693c0.626 0.001 1.226 0.25 1.668 0.693s0.691 1.043 0.692 1.669c-0 0.314-0.063 0.626-0.185 0.916s-0.301 0.552-0.526 0.772-0.491 0.393-0.784 0.509c-0.292 0.116-0.605 0.172-0.92 0.165l-2.176 1.552c0.008 0.288-0.057 0.572-0.188 0.828s-0.324 0.476-0.56 0.638c-0.237 0.163-0.511 0.264-0.797 0.293s-0.575-0.012-0.84-0.123c-0.255-0.106-0.48-0.272-0.658-0.484s-0.301-0.463-0.36-0.733l-2.353-0.969z"></path>
<path fill="#000" style="fill: var(--color1, #000)" d="M171.252 29.371c0.323 0.124 0.682 0.116 1-0.020s0.57-0.392 0.703-0.711c0.133-0.319 0.136-0.678 0.009-1s-0.375-0.582-0.69-0.724c-0.312-0.131-0.663-0.136-0.98-0.016l0.794 0.329c0.119 0.049 0.227 0.122 0.317 0.213s0.163 0.199 0.212 0.318 0.074 0.246 0.074 0.375c-0 0.129-0.026 0.256-0.075 0.375s-0.122 0.227-0.213 0.317-0.199 0.163-0.318 0.212c-0.119 0.049-0.246 0.074-0.375 0.074s-0.256-0.026-0.375-0.075l-0.768-0.318c0.14 0.294 0.384 0.526 0.684 0.652v0.001zM174.143 24.182c0 0.417 0.166 0.817 0.461 1.112s0.695 0.461 1.112 0.462c0.417-0.001 0.817-0.167 1.112-0.462s0.461-0.695 0.461-1.112c-0.001-0.417-0.167-0.817-0.461-1.112s-0.695-0.461-1.112-0.461c-0.417 0.001-0.817 0.167-1.112 0.461s-0.461 0.695-0.461 1.112zM175.718 22.997c0.155 0 0.309 0.031 0.452 0.090s0.274 0.147 0.384 0.257c0.11 0.11 0.197 0.24 0.256 0.384s0.090 0.297 0.090 0.452c-0 0.155-0.031 0.309-0.090 0.452s-0.147 0.274-0.257 0.384-0.24 0.197-0.384 0.256c-0.144 0.060-0.297 0.090-0.453 0.090-0.314-0-0.614-0.125-0.836-0.347s-0.346-0.523-0.346-0.836c0-0.313 0.125-0.614 0.347-0.836s0.523-0.346 0.836-0.346z"></path>
<path fill="#000" style="fill: var(--color1, #000)" d="M188.304 25.515c0-2.822 0-4.233 0.876-5.109s2.288-0.877 5.109-0.877h0.499c2.822 0 4.232 0 5.109 0.877s0.877 2.287 0.877 5.109v0.499c0 2.822 0 4.233-0.877 5.109s-2.288 0.877-5.109 0.877h-0.499c-2.822 0-4.233 0-5.109-0.877s-0.876-2.287-0.876-5.109v-0.499z"></path>
<path fill="#fff" style="fill: var(--color2, #fff)" d="M193.292 29.256l-1.372-1.122-0.706 0.918c-0.296 0.385-0.216 0.94 0.177 1.225 0.368 0.268 0.88 0.204 1.172-0.145l0.729-0.875z"></path>
<path fill="#fff" style="fill: var(--color2, #fff)" d="M198.655 25.765c-1.621 0.624-5.072 1.871-6.734 2.369l1.372 1.122 0.873 0.624c0.998 0.599 1.663-0.042 1.871-0.374l2.619-3.741z"></path>
<path fill="#fff" style="fill: var(--color2, #fff)" d="M190.778 25.762l0.394-0.496c1.954-0.748 6.185-2.32 7.482-2.619 0.332 0.54 0.798 1.92 0 3.118-1.954 0.79-6.036 2.369-6.734 2.369l-0.748-0.624c-0.903-0.733-0.636-1.44-0.394-1.748z"></path>
<path fill="#fff" style="fill: var(--color2, #fff)" d="M196.784 21.151c-1.496-0.599-2.785 0.249-3.242 0.748l-2.369 3.367c2.245-0.748 5.113-1.871 7.482-2.619-1.297-1.197-1.788-1.496-1.871-1.496z"></path>
<path fill="#000" style="fill: var(--color1, #000)" d="M209.716 21.412c0-0.91 0.737-1.647 1.647-1.647h8.471c0.91 0 1.647 0.737 1.647 1.647v8.471c0 0.91-0.737 1.647-1.647 1.647h-8.471c-0.91 0-1.647-0.737-1.647-1.647v-8.471z"></path>
<path fill="#fff" style="fill: var(--color2, #fff)" d="M213.952 22.941c0 0.585-0.474 1.059-1.059 1.059s-1.059-0.474-1.059-1.059c0-0.585 0.474-1.059 1.059-1.059s1.059 0.474 1.059 1.059z"></path>
<path fill="#fff" style="fill: var(--color2, #fff)" d="M212.069 24.706c0-0.13 0.105-0.235 0.235-0.235h1.176c0.13 0 0.235 0.105 0.235 0.235v4.471c0 0.13-0.105 0.235-0.235 0.235h-1.176c-0.13 0-0.235-0.105-0.235-0.235v-4.471z"></path>
<path fill="#fff" style="fill: var(--color2, #fff)" d="M214.658 24.471h1.059c0.13 0 0.235 0.105 0.235 0.235v0.235c0.471-0.588 1.333-0.628 1.765-0.588 1.345 0.122 1.569 1.49 1.529 2.235v2.588c0 0.13-0.105 0.235-0.235 0.235h-1.059c-0.13 0-0.235-0.105-0.235-0.235v-2.588c-0.039-0.314-0.259-0.941-0.824-0.941s-0.902 0.706-0.941 0.941v2.588c0 0.13-0.105 0.235-0.235 0.235h-1.059c-0.13 0-0.235-0.105-0.235-0.235v-4.471c0-0.13 0.105-0.235 0.235-0.235z"></path>
<path fill="#000" style="fill: var(--color1, #000)" d="M242.656 25.765c0 3.444-2.792 6.235-6.235 6.235s-6.235-2.792-6.235-6.235c0-3.444 2.792-6.235 6.235-6.235s6.235 2.792 6.235 6.235z"></path>
<path fill="#fff" style="fill: var(--color2, #fff)" d="M238.186 29.176v-1.35h-0.729c-0.028 0-0.059-0.004-0.087-0.011-0.506-0.13-0.431-0.88-0.431-1.404v-1.044h1.176v-1.302h-1.176v-1.712h-1.035c0 1.138-0.987 1.744-1.481 1.905v1.109h0.916v2.218c0 1.138 1.035 1.535 1.553 1.591h1.294z"></path>
<path fill="#000" style="fill: var(--color1, #000)" d="M251.127 22.588c0-1.689 1.372-3.059 3.059-3.059h6.353c1.689 0 3.059 1.369 3.059 3.059v6.353c0 1.689-1.369 3.059-3.059 3.059h-6.353c-1.687 0-3.059-1.369-3.059-3.059v-6.353z"></path>
<path fill="#fff" style="fill: var(--color2, #fff)" d="M259.586 21.412h-4.209c-0.915 0-1.661 0.742-1.661 1.658v4.201c0 0.916 0.746 1.658 1.661 1.658h1.219l0.746 1.188 0.805-1.188h1.44c0.915 0 1.659-0.742 1.659-1.658v-4.201c0-0.916-0.744-1.658-1.659-1.658z"></path>
<path fill="#000" style="fill: var(--color1, #000)" d="M256.595 25.005v0.608h0.609v-0.608h0.553v0.608h0.609v-0.608h0.609v-0.608h-0.609v-0.553h0.609v-0.608h-0.609v-0.608h-0.609v0.608h-0.553v-0.608h-0.609v0.608h-0.609v0.608h0.609v0.553h-0.609v0.608h0.609z"></path>
<path fill="#000" style="fill: var(--color1, #000)" d="M257.48 27.768c-1.638 0-2.565-1.032-2.824-1.548-0.054-0.111-0.094-0.33 0.056-0.442 0.221-0.166 0.482 0.011 0.664 0.276 0.24 0.35 0.998 1.050 2.104 1.050 1.386 0 2.049-0.94 2.106-1.050 0.082-0.166 0.332-0.387 0.607-0.276 0.224 0.088 0.167 0.332 0.111 0.442-0.256 0.516-1.184 1.548-2.824 1.548z"></path>
<path fill="#fff" style="fill: var(--color2, #fff)" d="M257.148 23.844h0.555v0.553h-0.555v-0.553z"></path>
<path fill="#fff" style="fill: var(--color2, #fff)" d="M280.871 27.473c0.193 1.383-1.365 2.744-3.478 3.040-2.115 0.296-3.986-0.585-4.179-1.968-0.195-1.383 1.362-2.743 3.478-3.039 2.113-0.296 3.986 0.585 4.179 1.967z"></path>
<path fill="#000" style="fill: var(--color1, #000)" d="M277.308 30.465c-2.066 0.204-3.849-0.731-3.981-2.085-0.134-1.357 1.431-2.618 3.494-2.823 2.066-0.205 3.849 0.731 3.979 2.085 0.136 1.357-1.428 2.62-3.492 2.823zM281.438 25.967c-0.176-0.054-0.296-0.088-0.205-0.319 0.2-0.502 0.219-0.933 0.002-1.242-0.405-0.578-1.513-0.548-2.781-0.015 0 0-0.4 0.173-0.296-0.141 0.193-0.628 0.165-1.152-0.139-1.457-0.689-0.689-2.522 0.027-4.092 1.598-1.174 1.172-1.856 2.421-1.856 3.5 0 2.061 2.645 3.315 5.233 3.315 3.388 0 5.647-1.97 5.647-3.534 0-0.948-0.795-1.483-1.513-1.705v0z"></path>
<path fill="#000" style="fill: var(--color1, #000)" d="M283.689 22.192c-0.388-0.431-0.882-0.752-1.435-0.93-0.551-0.179-1.139-0.209-1.706-0.088-0.061 0.013-0.12 0.038-0.172 0.074-0.049 0.035-0.094 0.081-0.129 0.133-0.033 0.052-0.056 0.111-0.068 0.173-0.009 0.061-0.009 0.125 0.002 0.186 0.014 0.061 0.040 0.119 0.075 0.17s0.080 0.095 0.132 0.129c0.054 0.034 0.113 0.057 0.174 0.069s0.125 0.010 0.186-0.003c0.402-0.086 0.821-0.065 1.212 0.062 0.393 0.127 0.746 0.355 1.021 0.661s0.466 0.679 0.553 1.082c0.085 0.403 0.064 0.822-0.064 1.214-0.038 0.12-0.028 0.251 0.031 0.364 0.056 0.113 0.155 0.198 0.278 0.238 0.12 0.039 0.249 0.028 0.362-0.030s0.198-0.157 0.238-0.277v-0.002c0.179-0.55 0.209-1.138 0.089-1.704-0.122-0.566-0.391-1.090-0.779-1.519v-0.001z"></path>
<path fill="#000" style="fill: var(--color1, #000)" d="M282.431 23.329c-0.188-0.21-0.431-0.366-0.699-0.453s-0.555-0.101-0.831-0.041c-0.054 0.011-0.104 0.033-0.148 0.063s-0.082 0.070-0.111 0.115c-0.059 0.091-0.080 0.203-0.059 0.309 0.024 0.107 0.087 0.2 0.179 0.259s0.202 0.080 0.308 0.057c0.266-0.056 0.553 0.027 0.748 0.241 0.195 0.217 0.249 0.511 0.162 0.769-0.033 0.104-0.024 0.217 0.026 0.314 0.052 0.097 0.136 0.171 0.24 0.205 0.106 0.033 0.219 0.024 0.315-0.026s0.169-0.136 0.205-0.24c0.087-0.269 0.101-0.556 0.042-0.832s-0.188-0.532-0.379-0.742v0.001z"></path>
<path fill="#000" style="fill: var(--color1, #000)" d="M277.424 28.012c-0.073 0.124-0.233 0.182-0.355 0.132-0.125-0.049-0.16-0.19-0.092-0.309 0.075-0.119 0.228-0.178 0.348-0.132 0.122 0.044 0.167 0.182 0.099 0.309zM276.762 28.856c-0.2 0.319-0.628 0.458-0.951 0.312-0.315-0.143-0.409-0.514-0.212-0.825 0.198-0.309 0.612-0.448 0.932-0.314 0.325 0.139 0.428 0.507 0.231 0.828v-0.001zM277.513 26.6c-0.981-0.256-2.092 0.234-2.518 1.098-0.435 0.882-0.016 1.864 0.976 2.185 1.028 0.331 2.24-0.178 2.661-1.128 0.416-0.933-0.101-1.89-1.12-2.156v0.001z"></path>
<path fill="#000" style="fill: var(--color1, #000)" d="M325.205 19.529h-10.035c-0.673 0-1.219 0.545-1.219 1.218v10.035c0 0.673 0.546 1.218 1.219 1.218h10.035c0.673 0 1.216-0.545 1.216-1.218v-10.035c0-0.673-0.544-1.218-1.216-1.218z"></path>
<path fill="#fff" style="fill: var(--color2, #fff)" d="M324.216 21.151h-2.635c-0.322 0-0.584 0.262-0.584 0.585v4.287c0 0.323 0.261 0.584 0.584 0.584h2.635c0.322 0 0.584-0.262 0.584-0.584v-4.287c0-0.323-0.261-0.585-0.584-0.585z"></path>
<path fill="#fff" style="fill: var(--color2, #fff)" d="M318.793 21.151h-2.635c-0.322 0-0.586 0.262-0.586 0.585v7.404c0 0.323 0.264 0.584 0.586 0.584h2.635c0.322 0 0.584-0.262 0.584-0.584v-7.404c0-0.323-0.261-0.585-0.584-0.585z"></path>
<path fill="#000" style="fill: var(--color1, #000)" d="M337.48 19.529h7.294c1.429 0 2.588 1.159 2.588 2.588v7.294c0 1.429-1.159 2.588-2.588 2.588h-7.294c-1.429 0-2.588-1.159-2.588-2.588v-7.294c0-1.429 1.159-2.588 2.588-2.588z"></path>
<path fill="#fff" style="fill: var(--color2, #fff)" d="M339.638 23.294c0.238 0 0.456 0.017 0.656 0.067 0.2 0.034 0.365 0.103 0.513 0.188 0.146 0.084 0.254 0.204 0.329 0.358 0.071 0.154 0.111 0.341 0.111 0.546 0 0.238-0.054 0.443-0.184 0.596-0.111 0.154-0.292 0.291-0.513 0.392 0.313 0.084 0.548 0.238 0.694 0.443 0.144 0.204 0.235 0.459 0.235 0.75 0 0.238-0.054 0.443-0.146 0.613-0.089 0.171-0.238 0.324-0.402 0.426-0.165 0.103-0.365 0.188-0.584 0.238s-0.438 0.084-0.656 0.084l-2.447 0.004v-4.706h2.393zM339.492 25.204c0.2 0 0.365-0.051 0.492-0.137 0.125-0.086 0.181-0.238 0.181-0.426 0-0.103-0.016-0.204-0.054-0.272-0.035-0.068-0.089-0.12-0.165-0.171-0.071-0.034-0.146-0.067-0.235-0.084-0.092-0.017-0.184-0.017-0.292-0.017h-1.059v1.109c0-0.002 1.132-0.002 1.132-0.002zM339.546 27.216c0.111 0 0.219-0.017 0.311-0.034 0.089-0.017 0.184-0.051 0.254-0.103 0.073-0.053 0.129-0.103 0.184-0.188 0.035-0.084 0.073-0.188 0.073-0.308 0-0.238-0.073-0.409-0.219-0.529-0.148-0.103-0.348-0.154-0.586-0.154h-1.202v1.313h1.186v0.002z"></path>
<path fill="#fff" style="fill: var(--color2, #fff)" d="M343.066 27.322c0.132 0.136 0.332 0.203 0.595 0.203 0.184 0 0.351-0.050 0.482-0.136 0.134-0.103 0.216-0.203 0.249-0.306h0.812c-0.134 0.406-0.332 0.695-0.598 0.882-0.264 0.17-0.579 0.27-0.962 0.27-0.264 0-0.496-0.050-0.713-0.136-0.214-0.084-0.381-0.203-0.532-0.373-0.148-0.153-0.264-0.339-0.332-0.559-0.082-0.22-0.118-0.456-0.118-0.729 0-0.253 0.033-0.492 0.118-0.712s0.2-0.406 0.348-0.576c0.151-0.153 0.334-0.289 0.532-0.373 0.216-0.084 0.431-0.136 0.696-0.136 0.285 0 0.532 0.050 0.748 0.17 0.214 0.119 0.381 0.253 0.515 0.456 0.132 0.186 0.231 0.406 0.299 0.643 0.033 0.236 0.049 0.475 0.033 0.745h-2.407c0 0.276 0.099 0.53 0.233 0.666zM344.111 25.543c-0.115-0.12-0.299-0.187-0.513-0.187-0.151 0-0.266 0.034-0.367 0.084-0.099 0.050-0.165 0.12-0.231 0.186s-0.101 0.153-0.118 0.237-0.033 0.153-0.033 0.22h1.494c-0.033-0.251-0.118-0.421-0.233-0.54zM342.652 23.765h1.856v0.456h-1.856v-0.456z"></path>
<path fill="#363636" style="fill: var(--color6, #363636)" d="M362.104 31.857c-1.104 0-2.118-0.364-2.769-0.907-0.332 0.097-0.755 0.254-1.021 0.449-0.231 0.166-0.202 0.336-0.16 0.404 0.181 0.301 3.106 0.192 3.951 0.099v-0.045zM362.104 31.857c1.104 0 2.118-0.364 2.769-0.907 0.332 0.097 0.755 0.254 1.024 0.449 0.228 0.166 0.2 0.336 0.158 0.404-0.181 0.301-3.106 0.192-3.951 0.099v-0.045z"></path>
<path fill="#000" style="fill: var(--color1, #000)" d="M362.111 25.346c1.821-0.012 3.282-0.359 3.779-0.492 0.118-0.032 0.181-0.089 0.181-0.089 0-0.016 0.007-0.292 0.007-0.434 0-2.395-1.148-4.802-3.974-4.802s-3.974 2.407-3.974 4.801c0 0.142 0.007 0.418 0.007 0.434 0 0 0.052 0.053 0.146 0.079 0.456 0.125 1.946 0.49 3.814 0.502h0.014zM367.064 27.342c-0.113-0.358-0.268-0.775-0.424-1.176 0 0-0.089-0.011-0.136 0.002-1.4 0.401-3.099 0.656-4.393 0.641h-0.014c-1.287 0.015-2.974-0.237-4.372-0.634-0.052-0.015-0.158-0.009-0.158-0.009-0.158 0.401-0.311 0.818-0.424 1.176-0.539 1.706-0.365 2.412-0.231 2.428 0.285 0.034 1.108-1.284 1.108-1.284 0 1.34 1.231 3.397 4.045 3.416h0.075c2.814-0.019 4.042-2.076 4.042-3.416 0 0 0.826 1.319 1.111 1.285 0.134-0.016 0.308-0.722-0.231-2.428z"></path>
<path fill="#fff" style="fill: var(--color2, #fff)" d="M361.099 23.068c-0.384 0.017-0.711-0.413-0.732-0.959s0.273-1.003 0.656-1.020c0.381-0.017 0.711 0.413 0.729 0.959 0.021 0.547-0.273 1.003-0.654 1.020zM363.84 22.109c-0.021 0.546-0.348 0.976-0.732 0.959s-0.675-0.474-0.656-1.020c0.021-0.546 0.348-0.976 0.732-0.959s0.678 0.474 0.656 1.020z"></path>
<path fill="#363636" style="fill: var(--color6, #363636)" d="M364.52 23.839c-0.101-0.223-1.134-0.472-2.409-0.472h-0.014c-1.278 0-2.308 0.249-2.412 0.472-0.005 0.010-0.007 0.021-0.007 0.032 0 0.016 0.005 0.030 0.014 0.043 0.087 0.124 1.233 0.736 2.405 0.736h0.014c1.172 0 2.318-0.612 2.405-0.736 0.007-0.013 0.012-0.028 0.014-0.043 0-0.011-0.005-0.022-0.009-0.032z"></path>
<path fill="#000" style="fill: var(--color1, #000)" d="M361.569 22.117c0.016 0.216-0.104 0.407-0.268 0.428-0.167 0.021-0.315-0.137-0.332-0.353-0.019-0.216 0.101-0.408 0.268-0.428 0.165-0.021 0.313 0.137 0.332 0.353v0zM362.621 22.189c0.035-0.060 0.266-0.374 0.744-0.259 0.125 0.030 0.184 0.074 0.195 0.092 0.019 0.026 0.024 0.062 0.005 0.111-0.038 0.098-0.111 0.095-0.153 0.076-0.026-0.012-0.36-0.231-0.666 0.095-0.021 0.022-0.059 0.030-0.094 0.003s-0.052-0.081-0.031-0.118z"></path>
<path fill="#fff" style="fill: var(--color2, #fff)" d="M362.111 26.73h-0.014c-0.88 0.010-1.948-0.104-2.981-0.305-0.089 0.504-0.141 1.138-0.096 1.894 0.115 1.91 1.268 3.111 3.049 3.129h0.071c1.781-0.017 2.934-1.218 3.049-3.129 0.045-0.756-0.007-1.39-0.096-1.894-1.033 0.201-2.101 0.316-2.981 0.305z"></path>
<path fill="#000" style="fill: var(--color1, #000)" d="M359.602 26.57v1.88c0 0 0.875 0.174 1.753 0.053v-1.734c-0.555-0.031-1.155-0.1-1.753-0.199z"></path>
<path fill="#000" style="fill: var(--color1, #000)" d="M366.071 24.765c0 0-1.704 0.529-3.96 0.544h-0.014c-2.254-0.015-3.953-0.542-3.96-0.544l-0.569 1.4c1.426 0.423 3.193 0.696 4.529 0.68h0.014c1.336 0.016 3.104-0.257 4.529-0.68l-0.569-1.4z"></path>
<path fill="#000" style="fill: var(--color1, #000)" d="M380.235 19.529h5.412c1.949 0 3.529 1.58 3.529 3.529v5.412c0 1.949-1.58 3.529-3.529 3.529h-5.412c-1.949 0-3.529-1.58-3.529-3.529v-5.412c0-1.949 1.58-3.529 3.529-3.529z"></path>
<path fill="#fff" style="fill: var(--color2, #fff)" d="M386.736 24.878c0.096-0.285 0.129-0.587 0.096-0.886-0.031-0.299-0.127-0.588-0.28-0.847-0.231-0.392-0.579-0.702-0.998-0.886s-0.885-0.232-1.334-0.138c-0.202-0.225-0.449-0.404-0.727-0.527-0.28-0.122-0.581-0.185-0.885-0.183-0.459-0.001-0.906 0.142-1.278 0.407-0.369 0.266-0.647 0.641-0.786 1.071-0.299 0.060-0.581 0.183-0.828 0.359s-0.452 0.403-0.602 0.664c-0.231 0.391-0.327 0.844-0.28 1.294s0.24 0.873 0.546 1.208c-0.096 0.285-0.129 0.587-0.096 0.885 0.031 0.298 0.127 0.587 0.28 0.846 0.228 0.393 0.579 0.704 0.998 0.888s0.885 0.233 1.334 0.138c0.202 0.225 0.452 0.404 0.729 0.527s0.579 0.185 0.882 0.184c0.459 0.001 0.906-0.142 1.275-0.407 0.372-0.266 0.647-0.641 0.788-1.071 0.299-0.060 0.581-0.183 0.826-0.36 0.247-0.176 0.454-0.403 0.605-0.664 0.228-0.391 0.327-0.844 0.28-1.294s-0.24-0.873-0.546-1.208zM383.508 29.33c-0.376 0-0.741-0.13-1.031-0.368 0.014-0.007 0.038-0.019 0.052-0.028l1.711-0.974c0.042-0.024 0.080-0.059 0.104-0.101s0.038-0.090 0.038-0.139v-2.378l0.722 0.411c0.005 0.002 0.007 0.005 0.009 0.008s0.005 0.008 0.005 0.012v1.968c0 0.877-0.72 1.588-1.609 1.589zM380.052 27.874c-0.188-0.321-0.256-0.698-0.193-1.064 0.012 0.008 0.035 0.021 0.052 0.030l1.711 0.974c0.042 0.024 0.089 0.037 0.139 0.037s0.099-0.013 0.141-0.037l2.087-1.19v0.823c0 0.004 0 0.008-0.002 0.012s-0.005 0.007-0.007 0.010l-1.729 0.984c-0.769 0.437-1.753 0.177-2.198-0.581v0.002zM379.602 24.191c0.188-0.322 0.485-0.568 0.838-0.696v2.005c0 0.049 0.014 0.096 0.038 0.139 0.026 0.042 0.061 0.077 0.104 0.101l2.087 1.189-0.725 0.413c-0.005 0.002-0.007 0.004-0.012 0.004s-0.009-0-0.012-0.002l-1.729-0.984c-0.769-0.439-1.033-1.409-0.588-2.168v0zM385.539 25.554l-2.087-1.189 0.722-0.412c0.005-0.002 0.007-0.004 0.012-0.004s0.009 0 0.012 0.002l1.729 0.984c0.266 0.151 0.48 0.373 0.621 0.64s0.202 0.569 0.176 0.869-0.139 0.588-0.322 0.827c-0.186 0.24-0.438 0.422-0.725 0.527v-2.004c0.002-0.049-0.012-0.097-0.035-0.139-0.026-0.042-0.061-0.077-0.104-0.102v0zM386.259 24.485c-0.016-0.010-0.033-0.020-0.049-0.030l-1.711-0.974c-0.042-0.025-0.092-0.038-0.141-0.038s-0.096 0.013-0.141 0.038l-2.087 1.189v-0.823c0-0.004 0.002-0.008 0.002-0.012 0.002-0.004 0.005-0.007 0.009-0.010l1.727-0.984c0.266-0.151 0.569-0.224 0.873-0.211 0.306 0.013 0.602 0.111 0.852 0.284 0.252 0.173 0.447 0.412 0.565 0.69s0.153 0.584 0.101 0.881v-0zM381.736 25.953l-0.722-0.411c-0.005-0.002-0.007-0.005-0.009-0.008s-0.005-0.008-0.005-0.012v-1.969c0-0.302 0.087-0.597 0.249-0.852 0.165-0.255 0.4-0.458 0.675-0.586 0.278-0.128 0.586-0.176 0.889-0.137s0.588 0.162 0.824 0.355c-0.012 0.007-0.035 0.019-0.052 0.028l-1.708 0.974c-0.045 0.024-0.080 0.059-0.104 0.101-0.026 0.042-0.038 0.090-0.038 0.139v2.378zM382.129 25.118l0.929-0.53 0.929 0.53v1.059l-0.929 0.529-0.929-0.529v-1.059z"></path>
<path fill="#000" style="fill: var(--color1, #000)" d="M380.235 0h5.412c1.949 0 3.529 1.58 3.529 3.529v5.412c0 1.949-1.58 3.529-3.529 3.529h-5.412c-1.949 0-3.529-1.58-3.529-3.529v-5.412c0-1.949 1.58-3.529 3.529-3.529z"></path>
<path fill="#000" style="fill: var(--color1, #000)" d="M403.809 5.839c-0.082-1.523-0.913-2.395-2.311-2.403-0.842-0.005-1.546 0.352-1.976 1.006l0.767 0.527c0.325-0.49 0.835-0.591 1.205-0.588 0.459 0.003 0.807 0.137 1.031 0.398 0.165 0.19 0.273 0.452 0.327 0.783-0.407-0.069-0.849-0.091-1.32-0.064-1.329 0.076-2.181 0.851-2.125 1.928 0.028 0.546 0.301 1.016 0.765 1.323 0.393 0.259 0.901 0.386 1.426 0.357 0.694-0.038 1.24-0.303 1.621-0.788 0.287-0.368 0.471-0.845 0.551-1.446 0.332 0.2 0.576 0.462 0.713 0.778 0.231 0.537 0.242 1.42-0.478 2.14-0.631 0.63-1.388 0.903-2.536 0.912-1.271-0.009-2.233-0.418-2.859-1.212-0.586-0.744-0.887-1.82-0.899-3.196 0.012-1.376 0.313-2.452 0.899-3.196 0.626-0.795 1.588-1.203 2.859-1.212 1.282 0.010 2.261 0.419 2.911 1.218 0.318 0.392 0.558 0.884 0.715 1.458l0.901-0.24c-0.193-0.707-0.494-1.316-0.906-1.822-0.831-1.025-2.054-1.549-3.624-1.56-1.565 0.011-2.769 0.538-3.579 1.566-0.72 0.915-1.089 2.195-1.104 3.791 0.014 1.596 0.384 2.869 1.104 3.784 0.809 1.028 2.019 1.555 3.584 1.566 1.393-0.010 2.374-0.374 3.181-1.181 1.059-1.057 1.026-2.381 0.678-3.193-0.266-0.625-0.8-1.125-1.518-1.433l-0.002-0.001zM401.548 8.163c-0.584 0.033-1.188-0.228-1.216-0.788-0.024-0.415 0.294-0.878 1.252-0.933 0.433-0.029 0.866 0.001 1.292 0.089-0.111 1.377-0.758 1.601-1.327 1.632z"></path>
<path fill="#000" style="fill: var(--color1, #000)" d="M395.304 31.941h1.066l4.174-4.838 3.318 4.838h3.668l-4.946-7.175 4.541-5.296h-1.085l-3.944 4.581-3.162-4.581h-3.64l4.781 6.945-4.772 5.525zM396.765 20.286h1.645l7.64 10.885h-1.664l-7.621-10.885z"></path>
</symbol>
</defs>
</svg>
