<svg aria-hidden="true" style="width:0;height:0;position:absolute;overflow:hidden" xmlns="http://www.w3.org/2000/svg"><defs><symbol id="icon-burger" viewBox="0 0 45 32"><path d="M3.2 0h16a3.2 3.2 0 1 1 0 6.4h-16a3.2 3.2 0 1 1 0-6.4zm22.4 25.6h16a3.2 3.2 0 1 1 0 6.4h-16a3.2 3.2 0 1 1 0-6.4zM3.2 12.8h38.4a3.2 3.2 0 1 1 0 6.4H3.2a3.2 3.2 0 1 1 0-6.4z"/></symbol><symbol id="logo" viewBox="0 0 200 200"><path stroke-width="3" d="M2 2h194v194H2z"/><path stroke-width="3" d="M8 8h182v182H8z"/><circle cx="64" cy="64" r="20" stroke-width="2"/><ellipse cx="64" cy="64" rx="6" ry="19" stroke-width="2"/><path stroke-width="2" d="M46 54h35M43 64h40M46 74h35"/><path stroke-width="0" d="m62 62 28 7-21 21z"/><path stroke-width="8" d="m70 70 8 2-6 6z"/><path stroke-width="6" d="m76 76 8 8"/><path stroke-width="3" d="M150 46 46 150M122 111h12M128 111v34M122 145h12"/>Sorry, your browser does not support inline SVG.</symbol><symbol id="circle" viewBox="0 0 32 32"><path d="M16 0C7.178 0 0 7.178 0 16c0 8.823 7.178 16 16 16s16-7.177 16-16c0-8.822-7.178-16-16-16Zm0 30.422c-7.952 0-14.422-6.47-14.422-14.422C1.578 8.048 8.048 1.578 16 1.578c7.952 0 14.422 6.47 14.422 14.422 0 7.952-6.47 14.422-14.422 14.422Z"/></symbol><symbol id="gitcat" viewBox="0 0 50 50"><path d="M30.4 40h-8v-4c-5.5 1.2-7-3-7-3-1-2-2-3-2-3-2-1.2 0-1 0-1 2 0 3 2 3 2 1.8 3 4.9 2.5 6 2 0-1 .4-2.5 1-3-4.4-.5-8-3-8-8s1-6 2-7c-.2-.5-1-2.3 0-5 0 0 2 0 4 3 1-1 4-1 5-1s4 0 5 1c2-3 4-3 4-3 1.1 2.7.2 4.5 0 5 1 1 2 2 2 7s-3.6 7.5-8 8c.6.5 1 2.2 1 3v7z"/></symbol><symbol id="github" viewBox="0 0 32 32"><use width="32" height="32" href="#circle"/><use href="#gitcat" width="30" height="30"/></symbol><symbol id="facebook" viewBox="0 0 32 32"><use width="32" height="32" href="#circle"/><path d="M10.927.611h-3.47a.23.23 0 0 0-.024.001C3.929.623 3.47 3.07 3.469 5.21a.267.267 0 0 0-.007.062v1.5H1.064a.263.263 0 0 0-.263.264v3.702a.263.263 0 0 0 .263.263h2.398v8.125a.263.263 0 0 0 .263.263h3.5a.263.263 0 0 0 .263-.263V11h3.439a.263.263 0 0 0 .263-.263V7.035a.263.263 0 0 0-.263-.263H7.225v-1.99h3.702a.263.263 0 0 0 .263-.263V.874a.263.263 0 0 0-.263-.263Z" transform="translate(10 6)"/></symbol><symbol id="instagram" viewBox="0 0 32 32"><use width="32" height="32" href="#circle"/><path d="M13.002.293H2.989A2.682 2.682 0 0 0 .311 2.972v10.059a2.682 2.682 0 0 0 2.678 2.678h10.013a2.682 2.682 0 0 0 2.678-2.678V2.97A2.681 2.681 0 0 0 13.002.294Zm-2.69 7.68a2.319 2.319 0 0 1-2.316 2.316 2.319 2.319 0 0 1-2.317-2.316c0-.634.257-1.208.67-1.627h3.293c.43.433.67 1.017.67 1.627Zm.671-5.537h2.346v2.417h-2.346V2.436Zm2.019 11.695H2.989a1.102 1.102 0 0 1-1.1-1.1V6.346h2.573a3.866 3.866 0 0 0-.36 1.627 3.898 3.898 0 0 0 3.894 3.894 3.899 3.899 0 0 0 3.894-3.894c0-.581-.132-1.13-.36-1.627h2.572v6.684a1.102 1.102 0 0 1-1.1 1.101Z" transform="translate(8 8)"/></symbol><symbol id="linkedin" viewBox="0 0 32 32"><use width="32" height="32" href="#circle"/><path d="M7.873 12.61h3.703v9.66H7.873v-9.66ZM9.688 11.068c1.035 0 1.874-.765 1.874-1.71 0-.944-.839-1.71-1.874-1.71-1.035 0-1.874.766-1.874 1.71 0 .945.84 1.71 1.874 1.71ZM20.883 12.391c-.758 0-1.4.138-1.929.414-.527.276-1.049.736-1.564 1.378V12.61H13.94v9.662h3.703v-4.64c0-.88.14-1.489.419-1.828.279-.34.642-.51 1.091-.51.407 0 .722.126.947.378.224.252.336.68.336 1.287v5.313h3.721v-6.14c0-1.274-.29-2.216-.87-2.826-.578-.61-1.38-.914-2.405-.914Z"/></symbol><symbol id="telegram" viewBox="0 0 32 32"><use width="32" height="32" href="#circle"/><path d="M19.777 4.43a1.5 1.5 0 0 1 2.062 1.626l-2.268 13.757c-.22 1.327-1.676 2.088-2.893 1.427-1.018-.553-2.53-1.405-3.89-2.294-.68-.445-2.763-1.87-2.507-2.884.22-.867 3.72-4.125 5.72-6.062.785-.761.427-1.2-.5-.5-2.303 1.738-5.998 4.381-7.22 5.125-1.078.656-1.64.768-2.312.656-1.226-.204-2.363-.52-3.291-.905-1.254-.52-1.193-2.244-.001-2.746l17.1-7.2Z" transform="translate(3 3)"/></symbol><symbol id="moon" stroke="none" viewBox="0 0 30 31"><path d="M26.198 19.656c.255-.607-.474-1.125-1.085-.855a9.606 9.606 0 0 1-3.877.81c-5.231 0-9.471-4.155-9.471-9.281a9.1 9.1 0 0 1 1.417-4.888c.355-.56-.07-1.335-.72-1.17C7.45 5.553 3.75 10.017 3.75 15.328c0 6.31 5.219 11.423 11.658 11.423 4.874 0 9.05-2.931 10.79-7.094Z"/><path d="M19.514 4.379c-.663-.443-1.453.347-1.012 1.01l.788 1.181a2.915 2.915 0 0 1 0 3.235l-.788 1.181c-.44.663.35 1.453 1.013 1.01l1.18-.787a2.915 2.915 0 0 1 3.235 0l1.181.787c.663.443 1.453-.347 1.01-1.01l-.787-1.181a2.915 2.915 0 0 1 0-3.235l.787-1.181c.443-.663-.347-1.453-1.011-1.01l-1.18.787a2.915 2.915 0 0 1-3.235 0l-1.181-.787Z"/></symbol><symbol id="sun" viewBox="0 0 32 33" fill="none"><path d="M16 23.722a7.222 7.222 0 1 0 0-14.444 7.222 7.222 0 0 0 0 14.444ZM4.333 28.167l1.111-1.111m21.112 0 1.11 1.11m-1.11-22.222 1.11-1.11M5.445 5.943l-1.11-1.11M3.221 16.5H1m30 0h-2.222M16 29.278V31.5m0-30v2.222" stroke-width="1.5" stroke-linecap="round" stroke-linejoin="round"/></symbol><symbol id="arrow-down" viewBox="0 0 24 24"><path d="M12 2a10 10 0 1 0 10 10A10.011 10.011 0 0 0 12 2Zm0 18a8 8 0 1 1 8-8 8.009 8.009 0 0 1-8 8Z"/><path d="M12 12.586 8.707 9.293l-1.414 1.414L12 15.414l4.707-4.707-1.414-1.414L12 12.586z"/></symbol><symbol id="arrow-up" viewBox="0 0 24 24"><path d="M12 2a10 10 0 1 0 10 10A10.011 10.011 0 0 0 12 2Zm0 18a8 8 0 1 1 8-8 8.009 8.009 0 0 1-8 8Z"/><path d="m7.293 13.293 1.414 1.414L12 11.414l3.293 3.293 1.414-1.414L12 8.586l-4.707 4.707z"/></symbol></defs></svg>