<svg aria-hidden="true" style="position: absolute; width: 0; height: 0; overflow: hidden;" version="1.1" xmlns="http://www.w3.org/2000/svg" xmlns:xlink="http://www.w3.org/1999/xlink">
<defs>
<symbol id="icon-burger" viewBox="0 0 45 32">
<path fill="#fff" style="fill: var(--color1, #fff)" d="M3.2 0h16c0.849 0 1.663 0.337 2.263 0.937s0.937 1.414 0.937 2.263-0.337 1.663-0.937 2.263c-0.6 0.6-1.414 0.937-2.263 0.937h-16c-0.849 0-1.663-0.337-2.263-0.937s-0.937-1.414-0.937-2.263 0.337-1.663 0.937-2.263c0.6-0.6 1.414-0.937 2.263-0.937zM25.6 25.6h16c0.849 0 1.663 0.337 2.263 0.937s0.937 1.414 0.937 2.263-0.337 1.663-0.937 2.263c-0.6 0.6-1.414 0.937-2.263 0.937h-16c-0.849 0-1.663-0.337-2.263-0.937s-0.937-1.414-0.937-2.263 0.337-1.663 0.937-2.263c0.6-0.6 1.414-0.937 2.263-0.937zM3.2 12.8h38.4c0.849 0 1.663 0.337 2.263 0.937s0.937 1.414 0.937 2.263-0.337 1.663-0.937 2.263c-0.6 0.6-1.414 0.937-2.263 0.937h-38.4c-0.849 0-1.663-0.337-2.263-0.937s-0.937-1.414-0.937-2.263 0.337-1.663 0.937-2.263c0.6-0.6 1.414-0.937 2.263-0.937z"></path>
</symbol>
        <symbol id="logo" viewBox="0 0 200 200">
   <!-- BORDER RECTANGELS -->
          <rect x="2"  y="2" width="194" height="194" stroke-width="3"/>
          <rect x="8" y="8" width="182" height="182" stroke-width="3" />
   <!-- network -->
        <circle cx="64" cy="64" r="20" stroke-width="2"  />
        <ellipse cx="64" cy="64" rx="6" ry="19" stroke-width="2" />
        <line x1="46" y1="54" x2="81" y2="54" stroke-width="2"  />
        <line x1="43" y1="64" x2="83" y2="64" stroke-width="2"  />
        <line x1="46" y1="74" x2="81" y2="74" stroke-width="2"  />
    <!-- pointer -->
        <polygon points="62,62 90,69 69,90" stroke-width="0" />
        <polygon points="70,70 78,72 72,78" stroke-width="8"  />
        <line x1="76" y1="76" x2="84" y2="84" stroke-width="6" />

    <!-- slash line -->
        <line x1="150" y1="46" x2="46" y2="150" stroke-width="3" />

    <!-- letter I -->
        <line x1="122" y1="111" x2="134" y2="111" stroke-width="3" />
        <line x1="128" y1="111" x2="128" y2="145" stroke-width="3" />
        <line x1="122" y1="145" x2="134" y2="145" stroke-width="3" />
        Sorry, your browser does not support inline SVG.
        </symbol>
</defs>
</svg>
